# Blender 4.1.1
# www.blender.org
mtllib EnemyBody.mtl
o 立方体
v -1.300000 1.000000 1.000000
v -1.300000 3.000000 1.000000
v -1.300000 1.000000 -1.000000
v -1.300000 3.000000 -1.000000
v 1.300000 1.000000 1.000000
v 1.300000 3.000000 1.000000
v 1.300000 1.000000 -1.000000
v 1.300000 3.000000 -1.000000
v -1.584876 0.780864 -0.000000
v -1.584876 2.000000 1.219136
v -1.584876 3.219136 0.000000
v -1.584877 2.000000 -1.219136
v 0.000000 0.780864 -1.219136
v -0.000000 3.219136 -1.219136
v 1.584876 2.000000 -1.219136
v 1.584876 0.780864 0.000000
v 1.584876 3.219136 0.000000
v 1.584877 2.000000 1.219136
v -0.000000 0.780864 1.219136
v -0.000000 3.219136 1.219136
v -2.182716 2.000000 0.000000
v 0.000000 2.000000 -1.679013
v 2.182716 2.000000 0.000000
v -0.000000 2.000000 1.679013
v 0.000000 0.320987 0.000000
v -0.000000 3.679013 0.000000
v -2.000000 1.400000 0.600000
v -2.000000 2.600000 0.600000
v -2.000000 1.400000 -0.600000
v -2.000000 2.600000 -0.600000
v 2.000000 1.400000 0.600000
v 2.000000 2.600000 0.600000
v 2.000000 1.400000 -0.600000
v 2.000000 2.600000 -0.600000
v -2.200000 1.600000 0.400000
v -2.200000 2.400000 0.400000
v -2.200000 1.600000 -0.400000
v -2.200000 2.400000 -0.400000
v 2.200000 1.600000 0.400000
v 2.200000 2.400000 0.400000
v 2.200000 1.600000 -0.400000
v 2.200000 2.400000 -0.400000
vn -0.8468 -0.4153 0.3322
vn -0.8468 0.3322 0.4153
vn -0.8468 0.3322 -0.4153
vn -0.8468 -0.4153 -0.3322
vn -0.2123 -0.3449 -0.9143
vn -0.2677 0.2784 -0.9224
vn 0.2677 0.2784 -0.9224
vn 0.2123 -0.3449 -0.9143
vn 0.8468 -0.4153 -0.3322
vn 0.8468 0.3322 -0.4153
vn 0.8468 0.3322 0.4153
vn 0.8468 -0.4153 0.3322
vn 0.2123 -0.3449 0.9143
vn 0.2677 0.2784 0.9224
vn -0.2677 0.2784 0.9224
vn -0.2123 -0.3449 0.9143
vn -0.2677 -0.9224 -0.2784
vn 0.2123 -0.9143 -0.3449
vn 0.2123 -0.9143 0.3449
vn -0.2677 -0.9224 0.2784
vn 0.2677 0.9224 -0.2784
vn -0.2123 0.9143 -0.3449
vn -0.2123 0.9143 0.3449
vn 0.2677 0.9224 0.2784
vn -1.0000 -0.0000 -0.0000
vn -0.0000 -0.0000 -1.0000
vn 1.0000 -0.0000 -0.0000
vn -0.0000 -0.0000 1.0000
vn -0.0000 -1.0000 -0.0000
vn -0.0000 1.0000 -0.0000
vn -0.8468 -0.3322 0.4153
vn -0.8468 0.4153 0.3322
vn -0.8468 0.4153 -0.3322
vn -0.8468 -0.3322 -0.4153
vn -0.2677 -0.2784 -0.9224
vn -0.2123 0.3449 -0.9143
vn 0.2123 0.3449 -0.9143
vn 0.2677 -0.2784 -0.9224
vn 0.8468 -0.3322 -0.4153
vn 0.8468 0.4153 -0.3322
vn 0.8468 0.4153 0.3322
vn 0.8468 -0.3322 0.4153
vn 0.2677 -0.2784 0.9224
vn 0.2123 0.3449 0.9143
vn -0.2123 0.3449 0.9143
vn -0.2677 -0.2784 0.9224
vn -0.2123 -0.9143 -0.3449
vn 0.2677 -0.9224 -0.2784
vn 0.2677 -0.9224 0.2784
vn -0.2123 -0.9143 0.3449
vn 0.2123 0.9143 -0.3449
vn -0.2677 0.9224 -0.2784
vn -0.2677 0.9224 0.2784
vn 0.2123 0.9143 0.3449
vt 0.598866 0.951100
vt 0.597536 0.869207
vt 0.645477 0.914151
vt 0.515642 0.867913
vt 0.551079 0.915684
vt 0.601452 0.787396
vt 0.638916 0.827809
vt 0.679345 0.865255
vt 0.692494 0.774207
vt 0.739853 0.821332
vt 0.706056 0.683221
vt 0.745476 0.721202
vt 0.783475 0.760605
vt 0.783509 0.683153
vt 0.821605 0.721266
vt 0.783475 0.605700
vt 0.821605 0.645040
vt 0.860961 0.683153
vt 0.875442 0.591179
vt 0.922136 0.640236
vt 0.885326 0.498598
vt 0.936436 0.530158
vt 0.968019 0.581254
vt 0.885326 0.867708
vt 0.875442 0.775127
vt 0.936436 0.836147
vt 0.826364 0.821799
vt 0.922136 0.726069
vt 0.968019 0.785051
vt 0.691494 0.591259
vt 0.745379 0.645073
vt 0.598909 0.581416
vt 0.644844 0.640358
vt 0.681529 0.498687
vt 0.740532 0.544544
vt 0.058252 0.007120
vt 0.058252 0.109385
vt 0.007120 0.058252
vt 0.109385 0.058252
vt 0.228695 0.279827
vt 0.279827 0.228695
vt 0.279827 0.330960
vt 0.330960 0.279827
vt 0.450270 0.501402
vt 0.109385 0.501402
vt 0.058252 0.450270
vt 0.450270 0.058253
vt 0.549730 0.007120
vt 0.549730 0.075297
vt 0.515642 0.041208
vt 0.583819 0.041208
vt 0.737217 0.262783
vt 0.771305 0.228695
vt 0.771305 0.296872
vt 0.805394 0.262783
vt 0.958792 0.484358
vt 0.583819 0.484358
vt 0.549730 0.450270
vt 0.958792 0.041208
vt 0.552570 0.821285
vt 0.645349 0.726869
vt 0.826364 0.544507
vt 0.630447 0.530292
vt 0.501402 0.450270
vt 0.501402 0.109385
vt 0.992880 0.450270
vt 0.992880 0.075297
s 0
usemtl Enemy.001
f 1/1/1 21/2/1 9/3/1
f 2/4/2 21/2/2 10/5/2
f 21/2/3 4/6/3 12/7/3
f 21/2/4 3/8/4 9/3/4
f 3/8/5 22/9/5 13/10/5
f 4/6/6 22/9/6 12/7/6
f 22/9/7 8/11/7 15/12/7
f 22/9/8 7/13/8 13/10/8
f 7/13/9 23/14/9 16/15/9
f 8/11/10 23/14/10 15/12/10
f 23/14/11 6/16/11 18/17/11
f 23/14/12 5/18/12 16/15/12
f 5/18/13 24/19/13 19/20/13
f 6/16/14 24/19/14 18/17/14
f 24/19/15 2/21/15 10/22/15
f 24/19/16 1/23/16 19/20/16
f 3/24/17 25/25/17 9/26/17
f 7/13/18 25/25/18 13/27/18
f 25/25/19 5/18/19 19/28/19
f 25/25/20 1/29/20 9/26/20
f 8/11/21 26/30/21 17/31/21
f 4/32/22 26/30/22 14/33/22
f 26/30/23 2/34/23 20/35/23
f 26/30/24 6/16/24 17/31/24
f 28/36/25 29/37/25 27/38/25
f 30/39/26 33/40/26 29/37/26
f 34/41/27 31/42/27 33/40/27
f 32/43/28 27/44/28 31/42/28
f 33/40/29 27/45/29 29/46/29
f 30/47/30 32/43/30 34/41/30
f 36/48/25 37/49/25 35/50/25
f 38/51/26 41/52/26 37/49/26
f 42/53/27 39/54/27 41/52/27
f 40/55/28 35/56/28 39/54/28
f 41/52/29 35/57/29 37/58/29
f 38/59/30 40/55/30 42/53/30
f 1/1/31 10/5/31 21/2/31
f 2/4/32 11/60/32 21/2/32
f 21/2/33 11/60/33 4/6/33
f 21/2/34 12/7/34 3/8/34
f 3/8/35 12/7/35 22/9/35
f 4/6/36 14/61/36 22/9/36
f 22/9/37 14/61/37 8/11/37
f 22/9/38 15/12/38 7/13/38
f 7/13/39 15/12/39 23/14/39
f 8/11/40 17/31/40 23/14/40
f 23/14/41 17/31/41 6/16/41
f 23/14/42 18/17/42 5/18/42
f 5/18/43 18/17/43 24/19/43
f 6/16/44 20/62/44 24/19/44
f 24/19/45 20/62/45 2/21/45
f 24/19/46 10/22/46 1/23/46
f 3/24/47 13/27/47 25/25/47
f 7/13/48 16/15/48 25/25/48
f 25/25/49 16/15/49 5/18/49
f 25/25/50 19/28/50 1/29/50
f 8/11/51 14/33/51 26/30/51
f 4/32/52 11/63/52 26/30/52
f 26/30/53 11/63/53 2/34/53
f 26/30/54 20/35/54 6/16/54
f 28/36/25 30/39/25 29/37/25
f 30/39/26 34/41/26 33/40/26
f 34/41/27 32/43/27 31/42/27
f 32/43/28 28/64/28 27/44/28
f 33/40/29 31/42/29 27/45/29
f 30/47/30 28/65/30 32/43/30
f 36/48/25 38/51/25 37/49/25
f 38/51/26 42/53/26 41/52/26
f 42/53/27 40/55/27 39/54/27
f 40/55/28 36/66/28 35/56/28
f 41/52/29 39/54/29 35/57/29
f 38/59/30 36/67/30 40/55/30
