# Blender 4.1.1
# www.blender.org
mtllib titleUI.mtl
o テキスト
v -11.698000 -0.764000 0.000000
v -11.514000 -0.764000 0.000000
v -11.514000 0.292000 0.000000
v -10.590000 -0.764000 0.000000
v -10.434000 -0.764000 0.000000
v -10.434000 0.600000 0.000000
v -10.618000 0.600000 0.000000
v -10.618000 -0.450000 0.000000
v -11.530001 0.600000 0.000000
v -11.698000 0.600000 0.000000
v -8.030000 -0.082000 0.000000
v -8.035807 0.009499 0.000000
v -8.052954 0.098324 0.000000
v -8.081031 0.183469 0.000000
v -8.119629 0.263926 0.000000
v -8.168339 0.338689 0.000000
v -8.226749 0.406750 0.000000
v -8.294452 0.467103 0.000000
v -8.371037 0.518741 0.000000
v -8.456093 0.560656 0.000000
v -8.549212 0.591843 0.000000
v -8.649984 0.611293 0.000000
v -8.757999 0.618000 0.000000
v -8.869573 0.611255 0.000000
v -8.973083 0.591704 0.000000
v -9.068219 0.560375 0.000000
v -9.154667 0.518296 0.000000
v -9.232115 0.466495 0.000000
v -9.300250 0.406000 0.000000
v -9.358761 0.337838 0.000000
v -9.407333 0.263037 0.000000
v -9.445656 0.182625 0.000000
v -9.473416 0.097630 0.000000
v -9.490302 0.009079 0.000000
v -9.495999 -0.082000 0.000000
v -9.490151 -0.175600 0.000000
v -9.472879 -0.265796 0.000000
v -9.444593 -0.351687 0.000000
v -9.405704 -0.432370 0.000000
v -9.356619 -0.506942 0.000000
v -9.297750 -0.574500 0.000000
v -9.229506 -0.634141 0.000000
v -9.152296 -0.684963 0.000000
v -9.066531 -0.726063 0.000000
v -8.972620 -0.756537 0.000000
v -8.870973 -0.775484 0.000000
v -8.762000 -0.782000 0.000000
v -8.654746 -0.775446 0.000000
v -8.554305 -0.756398 0.000000
v -8.461156 -0.725781 0.000000
v -8.375777 -0.684519 0.000000
v -8.298649 -0.633534 0.000000
v -8.230249 -0.573750 0.000000
v -8.171059 -0.506091 0.000000
v -8.121555 -0.431481 0.000000
v -8.082218 -0.350844 0.000000
v -8.053527 -0.265102 0.000000
v -8.035961 -0.175179 0.000000
v -8.231999 -0.082000 0.000000
v -8.236622 -0.155252 0.000000
v -8.250147 -0.224685 0.000000
v -8.272061 -0.289813 0.000000
v -8.301850 -0.350148 0.000000
v -8.339001 -0.405206 0.000000
v -8.382998 -0.454500 0.000000
v -8.433330 -0.497544 0.000000
v -8.489480 -0.533852 0.000000
v -8.550936 -0.562937 0.000000
v -8.617184 -0.584315 0.000000
v -8.687709 -0.597498 0.000000
v -8.762000 -0.602000 0.000000
v -8.836749 -0.597498 0.000000
v -8.907658 -0.584315 0.000000
v -8.974219 -0.562937 0.000000
v -9.035927 -0.533852 0.000000
v -9.092273 -0.497544 0.000000
v -9.142751 -0.454500 0.000000
v -9.186853 -0.405206 0.000000
v -9.224074 -0.350148 0.000000
v -9.253906 -0.289813 0.000000
v -9.275843 -0.224685 0.000000
v -9.289376 -0.155252 0.000000
v -9.294000 -0.082000 0.000000
v -9.289376 -0.009168 0.000000
v -9.275843 0.059991 0.000000
v -9.253906 0.124969 0.000000
v -9.224074 0.185259 0.000000
v -9.186853 0.240355 0.000000
v -9.142751 0.289750 0.000000
v -9.092273 0.332936 0.000000
v -9.035927 0.369407 0.000000
v -8.974219 0.398656 0.000000
v -8.907658 0.420176 0.000000
v -8.836749 0.433459 0.000000
v -8.762000 0.438000 0.000000
v -8.687711 0.433459 0.000000
v -8.617186 0.420176 0.000000
v -8.550938 0.398656 0.000000
v -8.489482 0.369407 0.000000
v -8.433331 0.332936 0.000000
v -8.383000 0.289750 0.000000
v -8.339003 0.240355 0.000000
v -8.301852 0.185259 0.000000
v -8.272063 0.124969 0.000000
v -8.250149 0.059991 0.000000
v -8.236624 -0.009168 0.000000
v -7.205999 -0.764000 0.000000
v -6.065999 -0.764000 0.000000
v -6.065999 -0.588000 0.000000
v -6.537999 -0.588000 0.000000
v -6.537999 0.600000 0.000000
v -6.733999 0.600000 0.000000
v -6.733999 -0.588000 0.000000
v -7.205999 -0.588000 0.000000
v -5.297999 -0.764000 0.000000
v -4.157999 -0.764000 0.000000
v -4.157999 -0.588000 0.000000
v -4.629999 -0.588000 0.000000
v -4.629999 0.600000 0.000000
v -4.825999 0.600000 0.000000
v -4.825999 -0.588000 0.000000
v -5.297999 -0.588000 0.000000
v -3.303999 -0.764000 0.000000
v -3.107999 -0.764000 0.000000
v -3.107999 0.030000 0.000000
v -3.107644 0.061415 0.000000
v -3.106490 0.091657 0.000000
v -3.104405 0.120719 0.000000
v -3.101259 0.148593 0.000000
v -3.096917 0.175272 0.000000
v -3.091249 0.200750 0.000000
v -3.084123 0.225020 0.000000
v -3.075407 0.248074 0.000000
v -3.064968 0.269906 0.000000
v -3.052675 0.290509 0.000000
v -3.038396 0.309876 0.000000
v -3.021999 0.328000 0.000000
v -3.005543 0.343189 0.000000
v -2.987185 0.357676 0.000000
v -2.966937 0.371344 0.000000
v -2.944814 0.384074 0.000000
v -2.920830 0.395749 0.000000
v -2.895000 0.406250 0.000000
v -2.867335 0.415459 0.000000
v -2.837851 0.423259 0.000000
v -2.806562 0.429531 0.000000
v -2.773481 0.434157 0.000000
v -2.738622 0.437020 0.000000
v -2.701999 0.438000 0.000000
v -2.672916 0.437207 0.000000
v -2.644666 0.434824 0.000000
v -2.617249 0.430844 0.000000
v -2.590666 0.425259 0.000000
v -2.564916 0.418064 0.000000
v -2.539999 0.409250 0.000000
v -2.515916 0.398811 0.000000
v -2.492666 0.386741 0.000000
v -2.470249 0.373031 0.000000
v -2.448666 0.357676 0.000000
v -2.427916 0.340668 0.000000
v -2.407999 0.322000 0.000000
v -2.393362 0.306407 0.000000
v -2.380398 0.290426 0.000000
v -2.369031 0.273750 0.000000
v -2.359185 0.256074 0.000000
v -2.350783 0.237093 0.000000
v -2.343750 0.216500 0.000000
v -2.338008 0.193991 0.000000
v -2.333481 0.169259 0.000000
v -2.330093 0.142000 0.000000
v -2.327768 0.111907 0.000000
v -2.326429 0.078676 0.000000
v -2.325999 0.042000 0.000000
v -2.325999 -0.764000 0.000000
v -2.129999 -0.764000 0.000000
v -2.129999 0.084000 0.000000
v -2.135675 0.172653 0.000000
v -2.152073 0.252722 0.000000
v -2.178249 0.324375 0.000000
v -2.213259 0.387778 0.000000
v -2.256157 0.443097 0.000000
v -2.305999 0.490500 0.000000
v -2.361842 0.530153 0.000000
v -2.422740 0.562222 0.000000
v -2.487749 0.586875 0.000000
v -2.555925 0.604278 0.000000
v -2.626323 0.614597 0.000000
v -2.697999 0.618000 0.000000
v -2.795211 0.613478 0.000000
v -2.883860 0.600157 0.000000
v -2.963968 0.578406 0.000000
v -3.035555 0.548593 0.000000
v -3.098642 0.511084 0.000000
v -3.153249 0.466250 0.000000
v -3.199399 0.414457 0.000000
v -3.237110 0.356074 0.000000
v -3.266406 0.291469 0.000000
v -3.287305 0.221009 0.000000
v -3.299829 0.145064 0.000000
v -3.303999 0.064000 0.000000
v -0.331999 0.600000 0.000000
v -0.799999 0.600000 0.000000
v -0.881051 0.596046 0.000000
v -0.953416 0.584704 0.000000
v -1.017405 0.566750 0.000000
v -1.073332 0.542963 0.000000
v -1.121510 0.514120 0.000000
v -1.162249 0.481000 0.000000
v -1.195864 0.444380 0.000000
v -1.222666 0.405037 0.000000
v -1.242968 0.363750 0.000000
v -1.257082 0.321296 0.000000
v -1.265322 0.278454 0.000000
v -1.267999 0.236000 0.000000
v -1.265441 0.191068 0.000000
v -1.257869 0.148380 0.000000
v -1.245437 0.108094 0.000000
v -1.228295 0.070370 0.000000
v -1.206599 0.035369 0.000000
v -1.180499 0.003250 0.000000
v -1.150150 -0.025828 0.000000
v -1.115703 -0.051704 0.000000
v -1.077312 -0.074219 0.000000
v -1.035129 -0.093213 0.000000
v -0.989307 -0.108527 0.000000
v -0.939999 -0.120000 0.000000
v -0.939999 -0.124000 0.000000
v -0.973922 -0.139218 0.000000
v -1.004712 -0.155907 0.000000
v -1.032405 -0.174125 0.000000
v -1.057036 -0.193926 0.000000
v -1.078639 -0.215366 0.000000
v -1.097249 -0.238500 0.000000
v -1.112901 -0.263384 0.000000
v -1.125629 -0.290074 0.000000
v -1.135468 -0.318625 0.000000
v -1.142453 -0.349093 0.000000
v -1.146618 -0.381532 0.000000
v -1.147999 -0.416000 0.000000
v -1.145350 -0.458979 0.000000
v -1.137305 -0.501500 0.000000
v -1.123718 -0.542938 0.000000
v -1.104444 -0.582667 0.000000
v -1.079336 -0.620063 0.000000
v -1.048249 -0.654500 0.000000
v -1.011037 -0.685354 0.000000
v -0.967555 -0.712000 0.000000
v -0.917655 -0.733813 0.000000
v -0.861194 -0.750167 0.000000
v -0.798023 -0.760438 0.000000
v -0.727999 -0.764000 0.000000
v -0.331999 -0.764000 0.000000
v -0.527999 -0.588000 0.000000
v -0.707999 -0.588000 0.000000
v -0.750495 -0.586209 0.000000
v -0.788129 -0.581009 0.000000
v -0.821124 -0.572656 0.000000
v -0.849703 -0.561407 0.000000
v -0.874087 -0.547520 0.000000
v -0.894499 -0.531250 0.000000
v -0.911161 -0.512855 0.000000
v -0.924296 -0.492593 0.000000
v -0.934124 -0.470719 0.000000
v -0.940870 -0.447491 0.000000
v -0.944754 -0.423165 0.000000
v -0.945999 -0.398000 0.000000
v -0.944037 -0.363040 0.000000
v -0.938138 -0.331157 0.000000
v -0.928280 -0.302344 0.000000
v -0.914444 -0.276593 0.000000
v -0.896607 -0.253897 0.000000
v -0.874749 -0.234250 0.000000
v -0.848850 -0.217645 0.000000
v -0.818888 -0.204074 0.000000
v -0.784843 -0.193531 0.000000
v -0.746694 -0.186009 0.000000
v -0.704419 -0.181501 0.000000
v -0.657999 -0.180000 0.000000
v -0.527999 -0.180000 0.000000
v -0.527999 -0.004000 0.000000
v -0.763999 -0.004000 0.000000
v -0.813216 -0.002197 0.000000
v -0.857897 0.003093 0.000000
v -0.898093 0.011687 0.000000
v -0.933851 0.023407 0.000000
v -0.965220 0.038072 0.000000
v -0.992249 0.055500 0.000000
v -1.014987 0.075512 0.000000
v -1.033481 0.097926 0.000000
v -1.047781 0.122562 0.000000
v -1.057934 0.149241 0.000000
v -1.063991 0.177780 0.000000
v -1.065999 0.208000 0.000000
v -1.064646 0.233677 0.000000
v -1.060342 0.259417 0.000000
v -1.052718 0.284781 0.000000
v -1.041407 0.309333 0.000000
v -1.026040 0.332635 0.000000
v -1.006249 0.354250 0.000000
v -0.981667 0.373740 0.000000
v -0.951925 0.390667 0.000000
v -0.916655 0.404594 0.000000
v -0.875490 0.415083 0.000000
v -0.828061 0.421698 0.000000
v -0.773999 0.424000 0.000000
v -0.527999 0.424000 0.000000
v 2.380000 -0.294000 0.000000
v 2.746000 -0.764000 0.000000
v 2.982000 -0.764000 0.000000
v 2.476000 -0.122000 0.000000
v 2.476000 0.600000 0.000000
v 2.280000 0.600000 0.000000
v 2.280000 -0.120000 0.000000
v 1.774000 -0.764000 0.000000
v 2.010000 -0.764000 0.000000
v 5.090000 -0.764000 0.000000
v 5.286000 -0.764000 0.000000
v 5.286000 -0.170000 0.000000
v 6.050000 -0.170000 0.000000
v 6.050000 -0.764000 0.000000
v 6.246000 -0.764000 0.000000
v 6.246000 0.600000 0.000000
v 6.050000 0.600000 0.000000
v 6.050000 0.006000 0.000000
v 5.286000 0.006000 0.000000
v 5.286000 0.600000 0.000000
v 5.090000 0.600000 0.000000
v 7.214001 -0.686000 0.000000
v 7.238163 -0.701333 0.000000
v 7.262630 -0.715333 0.000000
v 7.287375 -0.728000 0.000000
v 7.312371 -0.739333 0.000000
v 7.337588 -0.749333 0.000000
v 7.363000 -0.758000 0.000000
v 7.388579 -0.765333 0.000000
v 7.414297 -0.771333 0.000000
v 7.440125 -0.776000 0.000000
v 7.466038 -0.779333 0.000000
v 7.492005 -0.781333 0.000000
v 7.518001 -0.782000 0.000000
v 7.578664 -0.779078 0.000000
v 7.635473 -0.770454 0.000000
v 7.688157 -0.756344 0.000000
v 7.736445 -0.736963 0.000000
v 7.780066 -0.712527 0.000000
v 7.818750 -0.683250 0.000000
v 7.852226 -0.649348 0.000000
v 7.880223 -0.611037 0.000000
v 7.902469 -0.568531 0.000000
v 7.918695 -0.522046 0.000000
v 7.928629 -0.471797 0.000000
v 7.932001 -0.418000 0.000000
v 7.920392 -0.331282 0.000000
v 7.888297 -0.256759 0.000000
v 7.839813 -0.192375 0.000000
v 7.779038 -0.136074 0.000000
v 7.710068 -0.085801 0.000000
v 7.637001 -0.039500 0.000000
v 7.563934 0.004884 0.000000
v 7.494964 0.049407 0.000000
v 7.434189 0.096125 0.000000
v 7.385705 0.147093 0.000000
v 7.353610 0.204366 0.000000
v 7.342000 0.270000 0.000000
v 7.343466 0.289350 0.000000
v 7.347889 0.309130 0.000000
v 7.355313 0.328938 0.000000
v 7.365778 0.348370 0.000000
v 7.379327 0.367025 0.000000
v 7.396000 0.384500 0.000000
v 7.415841 0.400391 0.000000
v 7.438889 0.414296 0.000000
v 7.465188 0.425813 0.000000
v 7.494778 0.434537 0.000000
v 7.527701 0.440067 0.000000
v 7.564001 0.442000 0.000000
v 7.597323 0.440549 0.000000
v 7.630250 0.436222 0.000000
v 7.662719 0.429062 0.000000
v 7.694667 0.419111 0.000000
v 7.726032 0.406410 0.000000
v 7.756751 0.391000 0.000000
v 7.786761 0.372924 0.000000
v 7.816000 0.352222 0.000000
v 7.844407 0.328937 0.000000
v 7.871917 0.303111 0.000000
v 7.898469 0.274785 0.000000
v 7.924001 0.244000 0.000000
v 7.924001 0.492000 0.000000
v 7.895363 0.512545 0.000000
v 7.866399 0.531194 0.000000
v 7.837032 0.547969 0.000000
v 7.807186 0.562889 0.000000
v 7.776784 0.575976 0.000000
v 7.745750 0.587250 0.000000
v 7.714008 0.596732 0.000000
v 7.681482 0.604444 0.000000
v 7.648094 0.610406 0.000000
v 7.613769 0.614639 0.000000
v 7.578430 0.617163 0.000000
v 7.542000 0.618000 0.000000
v 7.488269 0.614807 0.000000
v 7.437315 0.605454 0.000000
v 7.389500 0.590281 0.000000
v 7.345185 0.569630 0.000000
v 7.304731 0.543839 0.000000
v 7.268500 0.513250 0.000000
v 7.236852 0.478203 0.000000
v 7.210148 0.439037 0.000000
v 7.188750 0.396094 0.000000
v 7.173018 0.349713 0.000000
v 7.163315 0.300235 0.000000
v 7.160000 0.248000 0.000000
v 7.171609 0.148218 0.000000
v 7.203704 0.064241 0.000000
v 7.252188 -0.006375 0.000000
v 7.312963 -0.066074 0.000000
v 7.381933 -0.117301 0.000000
v 7.455000 -0.162500 0.000000
v 7.528067 -0.204116 0.000000
v 7.597037 -0.244593 0.000000
v 7.657812 -0.286375 0.000000
v 7.706296 -0.331907 0.000000
v 7.738391 -0.383634 0.000000
v 7.750000 -0.444000 0.000000
v 7.748157 -0.467354 0.000000
v 7.742750 -0.489333 0.000000
v 7.733969 -0.509813 0.000000
v 7.722000 -0.528667 0.000000
v 7.707031 -0.545771 0.000000
v 7.689250 -0.561000 0.000000
v 7.668844 -0.574229 0.000000
v 7.646000 -0.585333 0.000000
v 7.620906 -0.594188 0.000000
v 7.593750 -0.600667 0.000000
v 7.564719 -0.604646 0.000000
v 7.534000 -0.606000 0.000000
v 7.510593 -0.605307 0.000000
v 7.486408 -0.603120 0.000000
v 7.461500 -0.599281 0.000000
v 7.435926 -0.593630 0.000000
v 7.409741 -0.586006 0.000000
v 7.383000 -0.576250 0.000000
v 7.355760 -0.564202 0.000000
v 7.328074 -0.549704 0.000000
v 7.300000 -0.532594 0.000000
v 7.271593 -0.512713 0.000000
v 7.242908 -0.489902 0.000000
v 7.214001 -0.464000 0.000000
v 8.832000 -0.764000 0.000000
v 9.028000 -0.764000 0.000000
v 9.028000 0.030000 0.000000
v 9.028356 0.061415 0.000000
v 9.029510 0.091657 0.000000
v 9.031594 0.120719 0.000000
v 9.034741 0.148593 0.000000
v 9.039083 0.175272 0.000000
v 9.044750 0.200750 0.000000
v 9.051876 0.225020 0.000000
v 9.060593 0.248074 0.000000
v 9.071032 0.269906 0.000000
v 9.083324 0.290509 0.000000
v 9.097604 0.309876 0.000000
v 9.114000 0.328000 0.000000
v 9.130456 0.343189 0.000000
v 9.148815 0.357676 0.000000
v 9.169063 0.371344 0.000000
v 9.191185 0.384074 0.000000
v 9.215169 0.395749 0.000000
v 9.241000 0.406250 0.000000
v 9.268664 0.415459 0.000000
v 9.298148 0.423259 0.000000
v 9.329437 0.429531 0.000000
v 9.362518 0.434157 0.000000
v 9.397377 0.437020 0.000000
v 9.434000 0.438000 0.000000
v 9.463083 0.437207 0.000000
v 9.491333 0.434824 0.000000
v 9.518750 0.430844 0.000000
v 9.545334 0.425259 0.000000
v 9.571084 0.418064 0.000000
v 9.596001 0.409250 0.000000
v 9.620084 0.398811 0.000000
v 9.643333 0.386741 0.000000
v 9.665751 0.373031 0.000000
v 9.687334 0.357676 0.000000
v 9.708084 0.340668 0.000000
v 9.728001 0.322000 0.000000
v 9.742639 0.306407 0.000000
v 9.755603 0.290426 0.000000
v 9.766970 0.273750 0.000000
v 9.776815 0.256074 0.000000
v 9.785217 0.237093 0.000000
v 9.792251 0.216500 0.000000
v 9.797993 0.193991 0.000000
v 9.802520 0.169259 0.000000
v 9.805907 0.142000 0.000000
v 9.808232 0.111907 0.000000
v 9.809571 0.078676 0.000000
v 9.810000 0.042000 0.000000
v 9.810000 -0.764000 0.000000
v 10.006001 -0.764000 0.000000
v 10.006001 0.084000 0.000000
v 10.000324 0.172653 0.000000
v 9.983926 0.252722 0.000000
v 9.957750 0.324375 0.000000
v 9.922741 0.387778 0.000000
v 9.879843 0.443097 0.000000
v 9.830000 0.490500 0.000000
v 9.774158 0.530153 0.000000
v 9.713260 0.562222 0.000000
v 9.648251 0.586875 0.000000
v 9.580074 0.604278 0.000000
v 9.509676 0.614597 0.000000
v 9.438001 0.618000 0.000000
v 9.340789 0.613478 0.000000
v 9.252139 0.600157 0.000000
v 9.172031 0.578406 0.000000
v 9.100445 0.548593 0.000000
v 9.037358 0.511084 0.000000
v 8.982751 0.466250 0.000000
v 8.936602 0.414457 0.000000
v 8.898890 0.356074 0.000000
v 8.869595 0.291469 0.000000
v 8.848695 0.221009 0.000000
v 8.836170 0.145064 0.000000
v 8.832000 0.064000 0.000000
v 11.708000 -0.764000 0.000000
v 11.708000 0.600000 0.000000
v 11.512000 0.600000 0.000000
v 11.512000 0.010000 0.000000
v 11.308001 0.010000 0.000000
v 11.232568 0.006571 0.000000
v 11.164205 -0.003435 0.000000
v 11.102814 -0.019594 0.000000
v 11.048298 -0.041481 0.000000
v 11.000560 -0.068675 0.000000
v 10.959502 -0.100750 0.000000
v 10.925028 -0.137284 0.000000
v 10.897039 -0.177852 0.000000
v 10.875440 -0.222031 0.000000
v 10.860132 -0.269398 0.000000
v 10.851019 -0.319529 0.000000
v 10.848001 -0.372000 0.000000
v 10.850849 -0.425088 0.000000
v 10.859454 -0.476037 0.000000
v 10.873907 -0.524375 0.000000
v 10.894297 -0.569630 0.000000
v 10.920714 -0.611329 0.000000
v 10.953250 -0.649000 0.000000
v 10.991994 -0.682171 0.000000
v 11.037037 -0.710370 0.000000
v 11.088469 -0.733125 0.000000
v 11.146379 -0.749963 0.000000
v 11.210860 -0.760412 0.000000
v 11.282001 -0.764000 0.000000
v 11.512000 -0.588000 0.000000
v 11.282001 -0.588000 0.000000
v 11.240044 -0.585817 0.000000
v 11.203010 -0.579537 0.000000
v 11.170656 -0.569563 0.000000
v 11.142740 -0.556296 0.000000
v 11.119020 -0.540141 0.000000
v 11.099250 -0.521500 0.000000
v 11.083188 -0.500775 0.000000
v 11.070592 -0.478370 0.000000
v 11.061218 -0.454688 0.000000
v 11.054824 -0.430130 0.000000
v 11.051166 -0.405100 0.000000
v 11.050000 -0.380000 0.000000
v 11.051934 -0.347220 0.000000
v 11.057639 -0.316926 0.000000
v 11.066969 -0.289187 0.000000
v 11.079778 -0.264074 0.000000
v 11.095921 -0.241655 0.000000
v 11.115251 -0.222000 0.000000
v 11.137622 -0.205178 0.000000
v 11.162889 -0.191259 0.000000
v 11.190907 -0.180312 0.000000
v 11.221528 -0.172407 0.000000
v 11.254608 -0.167613 0.000000
v 11.290001 -0.166000 0.000000
v 11.512000 -0.166000 0.000000
vn -0.0000 -0.0000 1.0000
vt 0.555556 0.000000
vt 0.333333 0.000000
vt 0.444444 0.000000
vt 0.777778 0.000000
vt 0.222222 0.000000
vt 0.000000 0.000000
vt 0.111111 0.000000
vt 1.000000 0.000000
vt 0.666667 0.000000
vt 0.888889 0.000000
vt 0.389474 0.000000
vt 0.368421 0.000000
vt 0.378947 0.000000
vt 0.357895 0.000000
vt 0.400000 0.000000
vt 0.347368 0.000000
vt 0.410526 0.000000
vt 0.336842 0.000000
vt 0.421053 0.000000
vt 0.326316 0.000000
vt 0.431579 0.000000
vt 0.315789 0.000000
vt 0.442105 0.000000
vt 0.631579 0.000000
vt 0.621053 0.000000
vt 0.642105 0.000000
vt 0.610526 0.000000
vt 0.652632 0.000000
vt 0.600000 0.000000
vt 0.663158 0.000000
vt 0.305263 0.000000
vt 0.452632 0.000000
vt 0.589474 0.000000
vt 0.673684 0.000000
vt 0.578947 0.000000
vt 0.684211 0.000000
vt 0.294737 0.000000
vt 0.463158 0.000000
vt 0.568421 0.000000
vt 0.694737 0.000000
vt 0.557895 0.000000
vt 0.705263 0.000000
vt 0.284211 0.000000
vt 0.473684 0.000000
vt 0.547368 0.000000
vt 0.715789 0.000000
vt 0.273684 0.000000
vt 0.484211 0.000000
vt 0.536842 0.000000
vt 0.726316 0.000000
vt 0.526316 0.000000
vt 0.736842 0.000000
vt 0.263158 0.000000
vt 0.494737 0.000000
vt 0.515789 0.000000
vt 0.747368 0.000000
vt 0.252632 0.000000
vt 0.757895 0.000000
vt 0.505263 0.000000
vt 0.010526 0.000000
vt 0.768421 0.000000
vt 0.242105 0.000000
vt 0.989474 0.000000
vt 0.778947 0.000000
vt 0.231579 0.000000
vt 0.021053 0.000000
vt 0.978947 0.000000
vt 0.789474 0.000000
vt 0.221053 0.000000
vt 0.031579 0.000000
vt 0.968421 0.000000
vt 0.800000 0.000000
vt 0.210526 0.000000
vt 0.042105 0.000000
vt 0.957895 0.000000
vt 0.810526 0.000000
vt 0.947368 0.000000
vt 0.821053 0.000000
vt 0.200000 0.000000
vt 0.052632 0.000000
vt 0.936842 0.000000
vt 0.831579 0.000000
vt 0.926316 0.000000
vt 0.842105 0.000000
vt 0.189474 0.000000
vt 0.063158 0.000000
vt 0.915789 0.000000
vt 0.852632 0.000000
vt 0.905263 0.000000
vt 0.863158 0.000000
vt 0.178947 0.000000
vt 0.073684 0.000000
vt 0.873684 0.000000
vt 0.894737 0.000000
vt 0.884211 0.000000
vt 0.168421 0.000000
vt 0.084211 0.000000
vt 0.157895 0.000000
vt 0.094737 0.000000
vt 0.147368 0.000000
vt 0.105263 0.000000
vt 0.136842 0.000000
vt 0.115789 0.000000
vt 0.126316 0.000000
vt 0.285714 0.000000
vt 0.142857 0.000000
vt 0.428571 0.000000
vt 0.571429 0.000000
vt 0.857143 0.000000
vt 0.714286 0.000000
vt 0.688312 0.000000
vt 0.662338 0.000000
vt 0.675325 0.000000
vt 0.649351 0.000000
vt 0.025974 0.000000
vt 0.012987 0.000000
vt 0.038961 0.000000
vt 0.636364 0.000000
vt 0.051948 0.000000
vt 0.987013 0.000000
vt 0.623377 0.000000
vt 0.701299 0.000000
vt 0.064935 0.000000
vt 0.610390 0.000000
vt 0.077922 0.000000
vt 0.597403 0.000000
vt 0.974026 0.000000
vt 0.090909 0.000000
vt 0.584416 0.000000
vt 0.103896 0.000000
vt 0.116883 0.000000
vt 0.558442 0.000000
vt 0.961039 0.000000
vt 0.129870 0.000000
vt 0.545455 0.000000
vt 0.727273 0.000000
vt 0.532468 0.000000
vt 0.155844 0.000000
vt 0.519481 0.000000
vt 0.506494 0.000000
vt 0.168831 0.000000
vt 0.948052 0.000000
vt 0.493506 0.000000
vt 0.181818 0.000000
vt 0.480519 0.000000
vt 0.740260 0.000000
vt 0.194805 0.000000
vt 0.467532 0.000000
vt 0.207792 0.000000
vt 0.935065 0.000000
vt 0.220779 0.000000
vt 0.454545 0.000000
vt 0.233766 0.000000
vt 0.441558 0.000000
vt 0.246753 0.000000
vt 0.753247 0.000000
vt 0.259740 0.000000
vt 0.415584 0.000000
vt 0.272727 0.000000
vt 0.402597 0.000000
vt 0.922078 0.000000
vt 0.389610 0.000000
vt 0.298701 0.000000
vt 0.376623 0.000000
vt 0.311688 0.000000
vt 0.363636 0.000000
vt 0.324675 0.000000
vt 0.350649 0.000000
vt 0.337662 0.000000
vt 0.766234 0.000000
vt 0.909091 0.000000
vt 0.779221 0.000000
vt 0.896104 0.000000
vt 0.792208 0.000000
vt 0.883117 0.000000
vt 0.805195 0.000000
vt 0.870130 0.000000
vt 0.818182 0.000000
vt 0.831169 0.000000
vt 0.844156 0.000000
vt 0.495238 0.000000
vt 0.485714 0.000000
vt 0.476190 0.000000
vt 0.466667 0.000000
vt 0.457143 0.000000
vt 0.447619 0.000000
vt 0.438095 0.000000
vt 0.419048 0.000000
vt 0.409524 0.000000
vt 0.504762 0.000000
vt 0.742857 0.000000
vt 0.514286 0.000000
vt 0.523810 0.000000
vt 0.390476 0.000000
vt 0.533333 0.000000
vt 0.542857 0.000000
vt 0.552381 0.000000
vt 0.561905 0.000000
vt 0.380952 0.000000
vt 0.580952 0.000000
vt 0.371429 0.000000
vt 0.590476 0.000000
vt 0.361905 0.000000
vt 0.609524 0.000000
vt 0.619048 0.000000
vt 0.352381 0.000000
vt 0.628571 0.000000
vt 0.342857 0.000000
vt 0.638095 0.000000
vt 0.647619 0.000000
vt 0.323810 0.000000
vt 0.657143 0.000000
vt 0.314286 0.000000
vt 0.304762 0.000000
vt 0.676190 0.000000
vt 0.295238 0.000000
vt 0.685714 0.000000
vt 0.695238 0.000000
vt 0.704762 0.000000
vt 0.276190 0.000000
vt 0.723810 0.000000
vt 0.733333 0.000000
vt 0.752381 0.000000
vt 0.266667 0.000000
vt 0.257143 0.000000
vt 0.247619 0.000000
vt 0.238095 0.000000
vt 0.228571 0.000000
vt 0.219048 0.000000
vt 0.209524 0.000000
vt 0.190476 0.000000
vt 0.761905 0.000000
vt 0.180952 0.000000
vt 0.771429 0.000000
vt 0.780952 0.000000
vt 0.790476 0.000000
vt 0.171429 0.000000
vt 0.809524 0.000000
vt 0.161905 0.000000
vt 0.819048 0.000000
vt 0.828571 0.000000
vt 0.152381 0.000000
vt 0.838095 0.000000
vt 0.847619 0.000000
vt 0.133333 0.000000
vt 0.866667 0.000000
vt 0.876190 0.000000
vt 0.123810 0.000000
vt 0.885714 0.000000
vt 0.895238 0.000000
vt 0.114286 0.000000
vt 0.904762 0.000000
vt 0.104762 0.000000
vt 0.914286 0.000000
vt 0.923810 0.000000
vt 0.095238 0.000000
vt 0.933333 0.000000
vt 0.942857 0.000000
vt 0.085714 0.000000
vt 0.952381 0.000000
vt 0.961905 0.000000
vt 0.971429 0.000000
vt 0.076190 0.000000
vt 0.980952 0.000000
vt 0.990476 0.000000
vt 0.066667 0.000000
vt 0.057143 0.000000
vt 0.047619 0.000000
vt 0.038095 0.000000
vt 0.028571 0.000000
vt 0.019048 0.000000
vt 0.009524 0.000000
vt 0.375000 0.000000
vt 0.125000 0.000000
vt 0.250000 0.000000
vt 0.875000 0.000000
vt 0.750000 0.000000
vt 0.500000 0.000000
vt 0.625000 0.000000
vt 0.107438 0.000000
vt 0.099174 0.000000
vt 0.082645 0.000000
vt 0.074380 0.000000
vt 0.115702 0.000000
vt 0.066116 0.000000
vt 0.057851 0.000000
vt 0.123967 0.000000
vt 0.049587 0.000000
vt 0.041322 0.000000
vt 0.132231 0.000000
vt 0.033058 0.000000
vt 0.024793 0.000000
vt 0.140496 0.000000
vt 0.016529 0.000000
vt 0.008264 0.000000
vt 0.148760 0.000000
vt 0.933884 0.000000
vt 0.942149 0.000000
vt 0.950413 0.000000
vt 0.958678 0.000000
vt 0.966942 0.000000
vt 0.975207 0.000000
vt 0.983471 0.000000
vt 0.991736 0.000000
vt 0.157025 0.000000
vt 0.917355 0.000000
vt 0.925620 0.000000
vt 0.165289 0.000000
vt 0.900826 0.000000
vt 0.173554 0.000000
vt 0.892562 0.000000
vt 0.884298 0.000000
vt 0.876033 0.000000
vt 0.867769 0.000000
vt 0.859504 0.000000
vt 0.851240 0.000000
vt 0.842975 0.000000
vt 0.834711 0.000000
vt 0.826446 0.000000
vt 0.190083 0.000000
vt 0.809917 0.000000
vt 0.198347 0.000000
vt 0.801653 0.000000
vt 0.793388 0.000000
vt 0.206612 0.000000
vt 0.785124 0.000000
vt 0.776860 0.000000
vt 0.214876 0.000000
vt 0.768595 0.000000
vt 0.223140 0.000000
vt 0.760331 0.000000
vt 0.752066 0.000000
vt 0.231405 0.000000
vt 0.743802 0.000000
vt 0.239669 0.000000
vt 0.735537 0.000000
vt 0.247934 0.000000
vt 0.256198 0.000000
vt 0.719008 0.000000
vt 0.264463 0.000000
vt 0.710744 0.000000
vt 0.280992 0.000000
vt 0.289256 0.000000
vt 0.702479 0.000000
vt 0.297521 0.000000
vt 0.504132 0.000000
vt 0.487603 0.000000
vt 0.495868 0.000000
vt 0.694215 0.000000
vt 0.305785 0.000000
vt 0.479339 0.000000
vt 0.314050 0.000000
vt 0.685950 0.000000
vt 0.471074 0.000000
vt 0.322314 0.000000
vt 0.462810 0.000000
vt 0.330579 0.000000
vt 0.338843 0.000000
vt 0.677686 0.000000
vt 0.347107 0.000000
vt 0.446281 0.000000
vt 0.355372 0.000000
vt 0.438017 0.000000
vt 0.669421 0.000000
vt 0.429752 0.000000
vt 0.371901 0.000000
vt 0.421488 0.000000
vt 0.380165 0.000000
vt 0.413223 0.000000
vt 0.388430 0.000000
vt 0.404959 0.000000
vt 0.661157 0.000000
vt 0.396694 0.000000
vt 0.652893 0.000000
vt 0.512397 0.000000
vt 0.520661 0.000000
vt 0.644628 0.000000
vt 0.528926 0.000000
vt 0.537190 0.000000
vt 0.628099 0.000000
vt 0.553719 0.000000
vt 0.561983 0.000000
vt 0.619835 0.000000
vt 0.570248 0.000000
vt 0.578512 0.000000
vt 0.611570 0.000000
vt 0.586777 0.000000
vt 0.595041 0.000000
vt 0.603306 0.000000
vt 0.018182 0.000000
vt 0.527273 0.000000
vt 0.509091 0.000000
vt 0.490909 0.000000
vt 0.472727 0.000000
vt 0.436364 0.000000
vt 0.418182 0.000000
vt 0.381818 0.000000
vt 0.563636 0.000000
vt 0.581818 0.000000
vt 0.345455 0.000000
vt 0.618182 0.000000
vt 0.654545 0.000000
vt 0.327273 0.000000
vt 0.672727 0.000000
vt 0.690909 0.000000
vt 0.709091 0.000000
vt 0.309091 0.000000
vt 0.745455 0.000000
vt 0.290909 0.000000
vt 0.763636 0.000000
vt 0.781818 0.000000
vt 0.254545 0.000000
vt 0.836364 0.000000
vt 0.236364 0.000000
vt 0.854545 0.000000
vt 0.872727 0.000000
vt 0.218182 0.000000
vt 0.890909 0.000000
vt 0.927273 0.000000
vt 0.945455 0.000000
vt 0.963636 0.000000
vt 0.981818 0.000000
vt 0.054545 0.000000
vt 0.163636 0.000000
vt 0.145455 0.000000
vt 0.127273 0.000000
vt 0.109091 0.000000
vt 0.072727 0.000000
vt 0.036364 0.000000
s 0
usemtl マテリアル
f 6/1/1 4/2/1 5/3/1
f 6/1/1 8/4/1 4/2/1
f 8/4/1 3/5/1 4/2/1
f 3/5/1 1/6/1 2/7/1
f 3/5/1 10/8/1 1/6/1
f 6/1/1 7/9/1 8/4/1
f 9/10/1 3/5/1 8/4/1
f 9/10/1 10/8/1 3/5/1
f 48/11/1 46/12/1 47/13/1
f 48/11/1 45/14/1 46/12/1
f 49/15/1 45/14/1 48/11/1
f 49/15/1 44/16/1 45/14/1
f 50/17/1 44/16/1 49/15/1
f 50/17/1 43/18/1 44/16/1
f 51/19/1 43/18/1 50/17/1
f 51/19/1 42/20/1 43/18/1
f 52/21/1 42/20/1 51/19/1
f 52/21/1 41/22/1 42/20/1
f 53/23/1 71/24/1 52/21/1
f 71/24/1 41/22/1 52/21/1
f 53/23/1 70/25/1 71/24/1
f 72/26/1 41/22/1 71/24/1
f 53/23/1 69/27/1 70/25/1
f 73/28/1 41/22/1 72/26/1
f 53/23/1 68/29/1 69/27/1
f 74/30/1 41/22/1 73/28/1
f 74/30/1 40/31/1 41/22/1
f 54/32/1 68/29/1 53/23/1
f 54/32/1 67/33/1 68/29/1
f 75/34/1 40/31/1 74/30/1
f 54/32/1 66/35/1 67/33/1
f 76/36/1 40/31/1 75/34/1
f 76/36/1 39/37/1 40/31/1
f 55/38/1 66/35/1 54/32/1
f 55/38/1 65/39/1 66/35/1
f 77/40/1 39/37/1 76/36/1
f 55/38/1 64/41/1 65/39/1
f 78/42/1 39/37/1 77/40/1
f 78/42/1 38/43/1 39/37/1
f 56/44/1 64/41/1 55/38/1
f 56/44/1 63/45/1 64/41/1
f 79/46/1 38/43/1 78/42/1
f 79/46/1 37/47/1 38/43/1
f 57/48/1 63/45/1 56/44/1
f 57/48/1 62/49/1 63/45/1
f 80/50/1 37/47/1 79/46/1
f 57/48/1 61/51/1 62/49/1
f 81/52/1 37/47/1 80/50/1
f 81/52/1 36/53/1 37/47/1
f 58/54/1 61/51/1 57/48/1
f 58/54/1 60/55/1 61/51/1
f 82/56/1 36/53/1 81/52/1
f 82/56/1 35/57/1 36/53/1
f 11/6/1 60/55/1 58/54/1
f 83/58/1 35/57/1 82/56/1
f 11/6/1 59/59/1 60/55/1
f 12/60/1 59/59/1 11/6/1
f 12/60/1 106/8/1 59/59/1
f 84/61/1 35/57/1 83/58/1
f 84/61/1 34/62/1 35/57/1
f 12/60/1 105/63/1 106/8/1
f 85/64/1 34/62/1 84/61/1
f 85/64/1 33/65/1 34/62/1
f 13/66/1 105/63/1 12/60/1
f 13/66/1 104/67/1 105/63/1
f 86/68/1 33/65/1 85/64/1
f 86/68/1 32/69/1 33/65/1
f 14/70/1 104/67/1 13/66/1
f 14/70/1 103/71/1 104/67/1
f 87/72/1 32/69/1 86/68/1
f 87/72/1 31/73/1 32/69/1
f 15/74/1 103/71/1 14/70/1
f 15/74/1 102/75/1 103/71/1
f 88/76/1 31/73/1 87/72/1
f 15/74/1 101/77/1 102/75/1
f 89/78/1 31/73/1 88/76/1
f 89/78/1 30/79/1 31/73/1
f 16/80/1 101/77/1 15/74/1
f 16/80/1 100/81/1 101/77/1
f 90/82/1 30/79/1 89/78/1
f 16/80/1 99/83/1 100/81/1
f 91/84/1 30/79/1 90/82/1
f 91/84/1 29/85/1 30/79/1
f 17/86/1 99/83/1 16/80/1
f 17/86/1 98/87/1 99/83/1
f 92/88/1 29/85/1 91/84/1
f 17/86/1 97/89/1 98/87/1
f 93/90/1 29/85/1 92/88/1
f 93/90/1 28/91/1 29/85/1
f 18/92/1 97/89/1 17/86/1
f 94/93/1 28/91/1 93/90/1
f 18/92/1 96/94/1 97/89/1
f 95/95/1 28/91/1 94/93/1
f 18/92/1 95/95/1 96/94/1
f 18/92/1 28/91/1 95/95/1
f 18/92/1 27/96/1 28/91/1
f 19/97/1 27/96/1 18/92/1
f 19/97/1 26/98/1 27/96/1
f 20/99/1 26/98/1 19/97/1
f 20/99/1 25/100/1 26/98/1
f 21/101/1 25/100/1 20/99/1
f 21/101/1 24/102/1 25/100/1
f 22/103/1 24/102/1 21/101/1
f 22/103/1 23/104/1 24/102/1
f 109/105/1 107/6/1 108/106/1
f 109/105/1 114/8/1 107/6/1
f 110/107/1 114/8/1 109/105/1
f 111/108/1 113/109/1 110/107/1
f 113/109/1 114/8/1 110/107/1
f 111/108/1 112/110/1 113/109/1
f 117/105/1 115/6/1 116/106/1
f 117/105/1 122/8/1 115/6/1
f 118/107/1 122/8/1 117/105/1
f 119/108/1 121/109/1 118/107/1
f 121/109/1 122/8/1 118/107/1
f 119/108/1 120/110/1 121/109/1
f 176/111/1 174/112/1 175/113/1
f 176/111/1 173/114/1 174/112/1
f 125/115/1 123/6/1 124/116/1
f 125/115/1 200/8/1 123/6/1
f 126/117/1 200/8/1 125/115/1
f 176/111/1 172/118/1 173/114/1
f 127/119/1 200/8/1 126/117/1
f 127/119/1 199/120/1 200/8/1
f 176/111/1 171/121/1 172/118/1
f 177/122/1 171/121/1 176/111/1
f 128/123/1 199/120/1 127/119/1
f 177/122/1 170/124/1 171/121/1
f 129/125/1 199/120/1 128/123/1
f 177/122/1 169/126/1 170/124/1
f 129/125/1 198/127/1 199/120/1
f 130/128/1 198/127/1 129/125/1
f 177/122/1 168/129/1 169/126/1
f 178/110/1 168/129/1 177/122/1
f 131/130/1 198/127/1 130/128/1
f 178/110/1 167/108/1 168/129/1
f 132/131/1 198/127/1 131/130/1
f 178/110/1 166/132/1 167/108/1
f 132/131/1 197/133/1 198/127/1
f 133/134/1 197/133/1 132/131/1
f 178/110/1 165/135/1 166/132/1
f 134/106/1 197/133/1 133/134/1
f 179/136/1 165/135/1 178/110/1
f 179/136/1 164/137/1 165/135/1
f 135/138/1 197/133/1 134/106/1
f 179/136/1 163/139/1 164/137/1
f 179/136/1 162/140/1 163/139/1
f 136/141/1 197/133/1 135/138/1
f 136/141/1 196/142/1 197/133/1
f 179/136/1 161/143/1 162/140/1
f 137/144/1 196/142/1 136/141/1
f 179/136/1 160/145/1 161/143/1
f 180/146/1 160/145/1 179/136/1
f 138/147/1 196/142/1 137/144/1
f 180/146/1 159/148/1 160/145/1
f 139/149/1 196/142/1 138/147/1
f 139/149/1 195/150/1 196/142/1
f 140/151/1 195/150/1 139/149/1
f 180/146/1 158/152/1 159/148/1
f 141/153/1 195/150/1 140/151/1
f 180/146/1 157/154/1 158/152/1
f 142/155/1 195/150/1 141/153/1
f 180/146/1 156/107/1 157/154/1
f 181/156/1 156/107/1 180/146/1
f 143/157/1 195/150/1 142/155/1
f 181/156/1 155/158/1 156/107/1
f 144/159/1 195/150/1 143/157/1
f 181/156/1 154/160/1 155/158/1
f 144/159/1 194/161/1 195/150/1
f 145/105/1 194/161/1 144/159/1
f 181/156/1 153/162/1 154/160/1
f 146/163/1 194/161/1 145/105/1
f 181/156/1 152/164/1 153/162/1
f 147/165/1 194/161/1 146/163/1
f 181/156/1 151/166/1 152/164/1
f 148/167/1 194/161/1 147/165/1
f 181/156/1 150/168/1 151/166/1
f 149/169/1 194/161/1 148/167/1
f 181/156/1 149/169/1 150/168/1
f 181/156/1 194/161/1 149/169/1
f 182/170/1 194/161/1 181/156/1
f 182/170/1 193/171/1 194/161/1
f 183/172/1 193/171/1 182/170/1
f 183/172/1 192/173/1 193/171/1
f 184/174/1 192/173/1 183/172/1
f 184/174/1 191/175/1 192/173/1
f 185/176/1 191/175/1 184/174/1
f 185/176/1 190/177/1 191/175/1
f 186/178/1 190/177/1 185/176/1
f 186/178/1 189/109/1 190/177/1
f 187/179/1 189/109/1 186/178/1
f 187/179/1 188/180/1 189/109/1
f 201/6/1 253/181/1 252/182/1
f 253/181/1 251/183/1 252/182/1
f 253/181/1 250/184/1 251/183/1
f 253/181/1 249/185/1 250/184/1
f 253/181/1 248/186/1 249/185/1
f 253/181/1 247/187/1 248/186/1
f 253/181/1 246/107/1 247/187/1
f 253/181/1 245/188/1 246/107/1
f 253/181/1 244/189/1 245/188/1
f 253/181/1 254/190/1 244/189/1
f 254/190/1 243/15/1 244/189/1
f 201/6/1 279/191/1 253/181/1
f 255/192/1 243/15/1 254/190/1
f 256/193/1 243/15/1 255/192/1
f 256/193/1 242/194/1 243/15/1
f 257/195/1 242/194/1 256/193/1
f 258/196/1 242/194/1 257/195/1
f 259/197/1 242/194/1 258/196/1
f 260/198/1 242/194/1 259/197/1
f 260/198/1 241/199/1 242/194/1
f 261/108/1 241/199/1 260/198/1
f 262/200/1 241/199/1 261/108/1
f 262/200/1 240/201/1 241/199/1
f 263/202/1 240/201/1 262/200/1
f 264/29/1 240/201/1 263/202/1
f 264/29/1 239/203/1 240/201/1
f 265/204/1 239/203/1 264/29/1
f 266/205/1 239/203/1 265/204/1
f 266/205/1 238/206/1 239/203/1
f 267/207/1 238/206/1 266/205/1
f 267/207/1 237/208/1 238/206/1
f 268/209/1 237/208/1 267/207/1
f 268/209/1 236/2/1 237/208/1
f 269/210/1 236/2/1 268/209/1
f 269/210/1 235/211/1 236/2/1
f 270/212/1 235/211/1 269/210/1
f 270/212/1 234/213/1 235/211/1
f 271/9/1 234/213/1 270/212/1
f 271/9/1 233/214/1 234/213/1
f 272/215/1 233/214/1 271/9/1
f 272/215/1 232/216/1 233/214/1
f 273/217/1 232/216/1 272/215/1
f 274/218/1 232/216/1 273/217/1
f 274/218/1 231/105/1 232/216/1
f 275/219/1 231/105/1 274/218/1
f 275/219/1 230/220/1 231/105/1
f 276/110/1 230/220/1 275/219/1
f 277/221/1 230/220/1 276/110/1
f 278/222/1 230/220/1 277/221/1
f 201/6/1 280/223/1 279/191/1
f 280/223/1 278/222/1 279/191/1
f 280/223/1 230/220/1 278/222/1
f 280/223/1 229/224/1 230/220/1
f 280/223/1 228/225/1 229/224/1
f 280/223/1 227/226/1 228/225/1
f 280/223/1 226/227/1 227/226/1
f 280/223/1 225/228/1 226/227/1
f 280/223/1 224/229/1 225/228/1
f 280/223/1 223/230/1 224/229/1
f 280/223/1 222/79/1 223/230/1
f 280/223/1 221/231/1 222/79/1
f 280/223/1 281/232/1 221/231/1
f 281/232/1 220/233/1 221/231/1
f 201/6/1 306/8/1 280/223/1
f 282/234/1 220/233/1 281/232/1
f 283/235/1 220/233/1 282/234/1
f 284/236/1 220/233/1 283/235/1
f 284/236/1 219/237/1 220/233/1
f 285/72/1 219/237/1 284/236/1
f 286/238/1 219/237/1 285/72/1
f 286/238/1 218/239/1 219/237/1
f 287/240/1 218/239/1 286/238/1
f 288/241/1 218/239/1 287/240/1
f 288/241/1 217/242/1 218/239/1
f 289/243/1 217/242/1 288/241/1
f 290/244/1 217/242/1 289/243/1
f 290/244/1 216/106/1 217/242/1
f 291/109/1 216/106/1 290/244/1
f 291/109/1 215/245/1 216/106/1
f 292/246/1 215/245/1 291/109/1
f 293/247/1 215/245/1 292/246/1
f 293/247/1 214/248/1 215/245/1
f 294/249/1 214/248/1 293/247/1
f 295/250/1 214/248/1 294/249/1
f 295/250/1 213/251/1 214/248/1
f 296/252/1 213/251/1 295/250/1
f 296/252/1 212/253/1 213/251/1
f 297/254/1 212/253/1 296/252/1
f 298/255/1 212/253/1 297/254/1
f 298/255/1 211/256/1 212/253/1
f 299/257/1 211/256/1 298/255/1
f 300/258/1 211/256/1 299/257/1
f 300/258/1 210/259/1 211/256/1
f 301/260/1 210/259/1 300/258/1
f 302/261/1 210/259/1 301/260/1
f 303/262/1 210/259/1 302/261/1
f 303/262/1 209/263/1 210/259/1
f 304/264/1 209/263/1 303/262/1
f 305/265/1 209/263/1 304/264/1
f 201/6/1 305/265/1 306/8/1
f 201/6/1 209/263/1 305/265/1
f 201/6/1 208/266/1 209/263/1
f 201/6/1 207/267/1 208/266/1
f 201/6/1 206/268/1 207/267/1
f 201/6/1 205/269/1 206/268/1
f 201/6/1 204/270/1 205/269/1
f 201/6/1 203/271/1 204/270/1
f 201/6/1 202/272/1 203/271/1
f 310/273/1 308/274/1 309/275/1
f 310/273/1 307/6/1 308/274/1
f 307/6/1 314/276/1 315/8/1
f 307/6/1 313/277/1 314/276/1
f 310/273/1 313/277/1 307/6/1
f 311/278/1 313/277/1 310/273/1
f 311/278/1 312/279/1 313/277/1
f 322/135/1 320/166/1 321/152/1
f 322/135/1 319/159/1 320/166/1
f 318/144/1 316/6/1 317/128/1
f 318/144/1 327/8/1 316/6/1
f 322/135/1 324/136/1 319/159/1
f 324/136/1 318/144/1 319/159/1
f 324/136/1 325/178/1 318/144/1
f 325/178/1 327/8/1 318/144/1
f 322/135/1 323/118/1 324/136/1
f 326/171/1 327/8/1 325/178/1
f 341/280/1 339/128/1 340/281/1
f 341/280/1 338/282/1 339/128/1
f 341/280/1 337/283/1 338/282/1
f 342/284/1 337/283/1 341/280/1
f 342/284/1 336/285/1 337/283/1
f 342/284/1 335/286/1 336/285/1
f 343/287/1 335/286/1 342/284/1
f 343/287/1 334/288/1 335/286/1
f 343/287/1 333/289/1 334/288/1
f 344/290/1 333/289/1 343/287/1
f 344/290/1 332/291/1 333/289/1
f 344/290/1 331/292/1 332/291/1
f 345/293/1 331/292/1 344/290/1
f 345/293/1 330/294/1 331/292/1
f 345/293/1 329/295/1 330/294/1
f 346/296/1 329/295/1 345/293/1
f 346/296/1 328/6/1 329/295/1
f 346/296/1 441/297/1 328/6/1
f 441/297/1 442/298/1 328/6/1
f 442/298/1 443/299/1 328/6/1
f 443/299/1 444/300/1 328/6/1
f 444/300/1 445/301/1 328/6/1
f 445/301/1 446/302/1 328/6/1
f 446/302/1 447/303/1 328/6/1
f 447/303/1 448/304/1 328/6/1
f 448/304/1 449/8/1 328/6/1
f 347/305/1 439/306/1 346/296/1
f 439/306/1 440/307/1 346/296/1
f 440/307/1 441/297/1 346/296/1
f 348/308/1 437/309/1 347/305/1
f 437/309/1 438/171/1 347/305/1
f 438/171/1 439/306/1 347/305/1
f 349/310/1 436/311/1 348/308/1
f 436/311/1 437/309/1 348/308/1
f 349/310/1 435/312/1 436/311/1
f 349/310/1 434/313/1 435/312/1
f 349/310/1 433/314/1 434/313/1
f 349/310/1 432/315/1 433/314/1
f 349/310/1 431/316/1 432/315/1
f 350/144/1 431/316/1 349/310/1
f 350/144/1 430/317/1 431/316/1
f 350/144/1 429/318/1 430/317/1
f 350/144/1 428/319/1 429/318/1
f 351/320/1 428/319/1 350/144/1
f 351/320/1 427/178/1 428/319/1
f 351/320/1 426/321/1 427/178/1
f 352/322/1 426/321/1 351/320/1
f 352/322/1 425/323/1 426/321/1
f 352/322/1 424/324/1 425/323/1
f 353/325/1 424/324/1 352/322/1
f 353/325/1 423/326/1 424/324/1
f 353/325/1 422/327/1 423/326/1
f 354/328/1 422/327/1 353/325/1
f 354/328/1 421/329/1 422/327/1
f 355/330/1 421/329/1 354/328/1
f 355/330/1 420/331/1 421/329/1
f 355/330/1 419/332/1 420/331/1
f 356/333/1 419/332/1 355/330/1
f 356/333/1 418/334/1 419/332/1
f 357/335/1 418/334/1 356/333/1
f 357/335/1 417/336/1 418/334/1
f 358/337/1 417/336/1 357/335/1
f 358/337/1 416/136/1 417/336/1
f 359/338/1 416/136/1 358/337/1
f 359/338/1 415/339/1 416/136/1
f 360/340/1 415/339/1 359/338/1
f 361/159/1 415/339/1 360/340/1
f 361/159/1 414/341/1 415/339/1
f 362/342/1 414/341/1 361/159/1
f 363/343/1 414/341/1 362/342/1
f 363/343/1 413/344/1 414/341/1
f 364/345/1 413/344/1 363/343/1
f 389/346/1 387/347/1 388/348/1
f 364/345/1 412/349/1 413/344/1
f 365/350/1 412/349/1 364/345/1
f 389/346/1 386/351/1 387/347/1
f 366/352/1 412/349/1 365/350/1
f 366/352/1 411/353/1 412/349/1
f 389/346/1 385/354/1 386/351/1
f 367/355/1 411/353/1 366/352/1
f 389/346/1 384/356/1 385/354/1
f 368/357/1 411/353/1 367/355/1
f 369/358/1 411/353/1 368/357/1
f 369/358/1 410/359/1 411/353/1
f 389/346/1 383/152/1 384/356/1
f 370/360/1 410/359/1 369/358/1
f 389/346/1 382/361/1 383/152/1
f 371/362/1 410/359/1 370/360/1
f 389/346/1 381/363/1 382/361/1
f 371/362/1 409/364/1 410/359/1
f 372/166/1 409/364/1 371/362/1
f 389/346/1 380/365/1 381/363/1
f 373/366/1 409/364/1 372/166/1
f 389/346/1 379/367/1 380/365/1
f 374/368/1 409/364/1 373/366/1
f 389/346/1 378/369/1 379/367/1
f 375/370/1 409/364/1 374/368/1
f 389/346/1 377/371/1 378/369/1
f 375/370/1 408/372/1 409/364/1
f 376/373/1 408/372/1 375/370/1
f 389/346/1 376/373/1 377/371/1
f 389/346/1 408/372/1 376/373/1
f 389/346/1 407/374/1 408/372/1
f 390/375/1 407/374/1 389/346/1
f 391/376/1 407/374/1 390/375/1
f 391/376/1 406/377/1 407/374/1
f 392/378/1 406/377/1 391/376/1
f 392/378/1 405/118/1 406/377/1
f 393/379/1 405/118/1 392/378/1
f 394/135/1 405/118/1 393/379/1
f 394/135/1 404/380/1 405/118/1
f 395/381/1 404/380/1 394/135/1
f 396/382/1 404/380/1 395/381/1
f 396/382/1 403/383/1 404/380/1
f 397/384/1 403/383/1 396/382/1
f 398/385/1 403/383/1 397/384/1
f 398/385/1 402/386/1 403/383/1
f 399/387/1 402/386/1 398/385/1
f 400/388/1 402/386/1 399/387/1
f 400/388/1 401/389/1 402/386/1
f 503/111/1 501/112/1 502/113/1
f 503/111/1 500/114/1 501/112/1
f 452/115/1 450/6/1 451/116/1
f 452/115/1 527/8/1 450/6/1
f 453/117/1 527/8/1 452/115/1
f 503/111/1 499/118/1 500/114/1
f 454/119/1 527/8/1 453/117/1
f 454/119/1 526/120/1 527/8/1
f 503/111/1 498/121/1 499/118/1
f 504/122/1 498/121/1 503/111/1
f 455/123/1 526/120/1 454/119/1
f 504/122/1 497/124/1 498/121/1
f 456/125/1 526/120/1 455/123/1
f 504/122/1 496/126/1 497/124/1
f 456/125/1 525/127/1 526/120/1
f 457/128/1 525/127/1 456/125/1
f 504/122/1 495/129/1 496/126/1
f 505/110/1 495/129/1 504/122/1
f 458/130/1 525/127/1 457/128/1
f 505/110/1 494/108/1 495/129/1
f 459/131/1 525/127/1 458/130/1
f 505/110/1 493/132/1 494/108/1
f 459/131/1 524/133/1 525/127/1
f 460/134/1 524/133/1 459/131/1
f 505/110/1 492/135/1 493/132/1
f 461/106/1 524/133/1 460/134/1
f 506/136/1 492/135/1 505/110/1
f 506/136/1 491/137/1 492/135/1
f 462/138/1 524/133/1 461/106/1
f 506/136/1 490/139/1 491/137/1
f 506/136/1 489/140/1 490/139/1
f 463/141/1 524/133/1 462/138/1
f 463/141/1 523/142/1 524/133/1
f 506/136/1 488/143/1 489/140/1
f 464/144/1 523/142/1 463/141/1
f 506/136/1 487/145/1 488/143/1
f 507/146/1 487/145/1 506/136/1
f 465/147/1 523/142/1 464/144/1
f 507/146/1 486/148/1 487/145/1
f 466/149/1 523/142/1 465/147/1
f 466/149/1 522/150/1 523/142/1
f 467/151/1 522/150/1 466/149/1
f 507/146/1 485/152/1 486/148/1
f 468/153/1 522/150/1 467/151/1
f 507/146/1 484/154/1 485/152/1
f 469/155/1 522/150/1 468/153/1
f 507/146/1 483/107/1 484/154/1
f 508/156/1 483/107/1 507/146/1
f 470/157/1 522/150/1 469/155/1
f 508/156/1 482/158/1 483/107/1
f 471/159/1 522/150/1 470/157/1
f 508/156/1 481/160/1 482/158/1
f 471/159/1 521/161/1 522/150/1
f 472/105/1 521/161/1 471/159/1
f 508/156/1 480/162/1 481/160/1
f 473/163/1 521/161/1 472/105/1
f 508/156/1 479/164/1 480/162/1
f 474/165/1 521/161/1 473/163/1
f 508/156/1 478/166/1 479/164/1
f 475/167/1 521/161/1 474/165/1
f 508/156/1 477/168/1 478/166/1
f 476/169/1 521/161/1 475/167/1
f 508/156/1 476/169/1 477/168/1
f 508/156/1 521/161/1 476/169/1
f 509/170/1 521/161/1 508/156/1
f 509/170/1 520/171/1 521/161/1
f 510/172/1 520/171/1 509/170/1
f 510/172/1 519/173/1 520/171/1
f 511/174/1 519/173/1 510/172/1
f 511/174/1 518/175/1 519/173/1
f 512/176/1 518/175/1 511/174/1
f 512/176/1 517/177/1 518/175/1
f 513/178/1 517/177/1 512/176/1
f 513/178/1 516/109/1 517/177/1
f 514/179/1 516/109/1 513/178/1
f 514/179/1 515/180/1 516/109/1
f 529/390/1 557/391/1 528/6/1
f 557/391/1 556/392/1 528/6/1
f 557/391/1 555/393/1 556/392/1
f 557/391/1 554/394/1 555/393/1
f 557/391/1 553/152/1 554/394/1
f 557/391/1 552/395/1 553/152/1
f 557/391/1 551/396/1 552/395/1
f 557/391/1 550/15/1 551/396/1
f 557/391/1 549/397/1 550/15/1
f 557/391/1 558/135/1 549/397/1
f 558/135/1 548/166/1 549/397/1
f 529/390/1 583/8/1 557/391/1
f 559/398/1 548/166/1 558/135/1
f 560/399/1 548/166/1 559/398/1
f 561/29/1 548/166/1 560/399/1
f 561/29/1 547/400/1 548/166/1
f 562/401/1 547/400/1 561/29/1
f 563/118/1 547/400/1 562/401/1
f 564/402/1 547/400/1 563/118/1
f 564/402/1 546/403/1 547/400/1
f 565/404/1 546/403/1 564/402/1
f 566/405/1 546/403/1 565/404/1
f 567/406/1 546/403/1 566/405/1
f 567/406/1 545/407/1 546/403/1
f 568/136/1 545/407/1 567/406/1
f 569/408/1 545/407/1 568/136/1
f 569/408/1 544/409/1 545/407/1
f 570/410/1 544/409/1 569/408/1
f 571/411/1 544/409/1 570/410/1
f 571/411/1 543/159/1 544/409/1
f 572/72/1 543/159/1 571/411/1
f 572/72/1 542/412/1 543/159/1
f 573/178/1 542/412/1 572/72/1
f 574/413/1 542/412/1 573/178/1
f 574/413/1 541/414/1 542/412/1
f 575/415/1 541/414/1 574/413/1
f 576/416/1 541/414/1 575/415/1
f 576/416/1 540/417/1 541/414/1
f 577/418/1 540/417/1 576/416/1
f 578/171/1 540/417/1 577/418/1
f 579/419/1 540/417/1 578/171/1
f 580/420/1 540/417/1 579/419/1
f 580/420/1 539/79/1 540/417/1
f 581/421/1 539/79/1 580/420/1
f 582/422/1 539/79/1 581/421/1
f 529/390/1 531/423/1 583/8/1
f 531/423/1 582/422/1 583/8/1
f 531/423/1 539/79/1 582/422/1
f 531/423/1 538/144/1 539/79/1
f 531/423/1 537/424/1 538/144/1
f 531/423/1 536/425/1 537/424/1
f 531/423/1 535/426/1 536/425/1
f 531/423/1 534/427/1 535/426/1
f 531/423/1 533/128/1 534/427/1
f 531/423/1 532/428/1 533/128/1
f 529/390/1 530/429/1 531/423/1
