# Blender 4.1.1
# www.blender.org
mtllib Hammer.mtl
o 円柱
v 0.000000 5.000000 -0.500000
v 0.000000 15.000000 -0.500000
v 0.097545 5.000000 -0.490393
v 0.097545 15.000000 -0.490393
v 0.191342 5.000000 -0.461940
v 0.191342 15.000000 -0.461940
v 0.277785 5.000000 -0.415735
v 0.277785 15.000000 -0.415735
v 0.353553 5.000000 -0.353553
v 0.353553 15.000000 -0.353553
v 0.415735 5.000000 -0.277785
v 0.415735 15.000000 -0.277785
v 0.461940 5.000000 -0.191342
v 0.461940 15.000000 -0.191342
v 0.490393 5.000000 -0.097545
v 0.490393 15.000000 -0.097545
v 0.500000 5.000000 0.000000
v 0.500000 15.000000 0.000000
v 0.490393 5.000000 0.097545
v 0.490393 15.000000 0.097545
v 0.461940 5.000000 0.191342
v 0.461940 15.000000 0.191342
v 0.415735 5.000000 0.277785
v 0.415735 15.000000 0.277785
v 0.353553 5.000000 0.353553
v 0.353553 15.000000 0.353553
v 0.277785 5.000000 0.415735
v 0.277785 15.000000 0.415735
v 0.191342 5.000000 0.461940
v 0.191342 15.000000 0.461940
v 0.097545 5.000000 0.490393
v 0.097545 15.000000 0.490393
v 0.000000 5.000000 0.500000
v 0.000000 15.000000 0.500000
v -0.097545 5.000000 0.490393
v -0.097545 15.000000 0.490393
v -0.191342 5.000000 0.461940
v -0.191342 15.000000 0.461940
v -0.277785 5.000000 0.415735
v -0.277785 15.000000 0.415735
v -0.353553 5.000000 0.353553
v -0.353553 15.000000 0.353553
v -0.415735 5.000000 0.277785
v -0.415735 15.000000 0.277785
v -0.461940 5.000000 0.191342
v -0.461940 15.000000 0.191342
v -0.490393 5.000000 0.097545
v -0.490393 15.000000 0.097545
v -0.500000 5.000000 0.000000
v -0.500000 15.000000 0.000000
v -0.490393 5.000000 -0.097545
v -0.490393 15.000000 -0.097545
v -0.461940 5.000000 -0.191342
v -0.461940 15.000000 -0.191342
v -0.415735 5.000000 -0.277785
v -0.415735 15.000000 -0.277785
v -0.353553 5.000000 -0.353553
v -0.353553 15.000000 -0.353553
v -0.277785 5.000000 -0.415735
v -0.277785 15.000000 -0.415735
v -0.191342 5.000000 -0.461940
v -0.191342 15.000000 -0.461940
v -0.097545 5.000000 -0.490393
v -0.097545 15.000000 -0.490393
v 0.000000 14.434420 -2.000000
v 0.000000 14.434420 2.000000
v 0.390181 14.395990 -2.000000
v 0.390181 14.395990 2.000000
v 0.765367 14.282179 -2.000000
v 0.765367 14.282179 2.000000
v 1.111140 14.097359 -2.000000
v 1.111140 14.097359 2.000000
v 1.414214 13.848633 -2.000000
v 1.414214 13.848633 2.000000
v 1.662939 13.545560 -2.000000
v 1.662939 13.545560 2.000000
v 1.847759 13.199786 -2.000000
v 1.847759 13.199786 2.000000
v 1.961571 12.824600 -2.000000
v 1.961571 12.824600 2.000000
v 2.000000 12.434420 -2.000000
v 2.000000 12.434420 2.000000
v 1.961571 12.044239 -2.000000
v 1.961571 12.044239 2.000000
v 1.847759 11.669052 -2.000000
v 1.847759 11.669052 2.000000
v 1.662939 11.323279 -2.000000
v 1.662939 11.323278 2.000000
v 1.414214 11.020206 -2.000000
v 1.414214 11.020206 2.000000
v 1.111140 10.771481 -2.000000
v 1.111140 10.771481 2.000000
v 0.765367 10.586660 -2.000000
v 0.765367 10.586660 2.000000
v 0.390181 10.472849 -2.000000
v 0.390181 10.472849 2.000000
v 0.000000 10.434420 -2.000000
v 0.000000 10.434420 2.000000
v -0.390181 10.472849 -2.000000
v -0.390181 10.472849 2.000000
v -0.765367 10.586660 -2.000000
v -0.765367 10.586660 2.000000
v -1.111140 10.771481 -2.000000
v -1.111140 10.771481 2.000000
v -1.414214 11.020206 -2.000000
v -1.414214 11.020206 2.000000
v -1.662939 11.323279 -2.000000
v -1.662939 11.323278 2.000000
v -1.847759 11.669052 -2.000000
v -1.847759 11.669052 2.000000
v -1.961571 12.044239 -2.000000
v -1.961571 12.044239 2.000000
v -2.000000 12.434420 -2.000000
v -2.000000 12.434420 2.000000
v -1.961571 12.824600 -2.000000
v -1.961571 12.824600 2.000000
v -1.847759 13.199786 -2.000000
v -1.847759 13.199786 2.000000
v -1.662939 13.545560 -2.000000
v -1.662939 13.545560 2.000000
v -1.414214 13.848633 -2.000000
v -1.414214 13.848633 2.000000
v -1.111140 14.097359 -2.000000
v -1.111140 14.097359 2.000000
v -0.765367 14.282179 -2.000000
v -0.765367 14.282179 2.000000
v -0.390181 14.395990 -2.000000
v -0.390181 14.395990 2.000000
vn -0.0000 -0.0000 -1.0000
vn 0.1951 -0.0000 -0.9808
vn 0.3827 -0.0000 -0.9239
vn 0.5556 -0.0000 -0.8315
vn 0.7071 -0.0000 -0.7071
vn 0.8315 -0.0000 -0.5556
vn 0.9239 -0.0000 -0.3827
vn 0.9808 -0.0000 -0.1951
vn 1.0000 -0.0000 -0.0000
vn 0.9808 -0.0000 0.1951
vn 0.9239 -0.0000 0.3827
vn 0.8315 -0.0000 0.5556
vn 0.7071 -0.0000 0.7071
vn 0.5556 -0.0000 0.8315
vn 0.3827 -0.0000 0.9239
vn 0.1951 -0.0000 0.9808
vn -0.0000 -0.0000 1.0000
vn -0.1951 -0.0000 0.9808
vn -0.3827 -0.0000 0.9239
vn -0.5556 -0.0000 0.8315
vn -0.7071 -0.0000 0.7071
vn -0.8315 -0.0000 0.5556
vn -0.9239 -0.0000 0.3827
vn -0.9808 -0.0000 0.1951
vn -1.0000 -0.0000 -0.0000
vn -0.9808 -0.0000 -0.1951
vn -0.9239 -0.0000 -0.3827
vn -0.8315 -0.0000 -0.5556
vn -0.7071 -0.0000 -0.7071
vn -0.5556 -0.0000 -0.8315
vn -0.3827 -0.0000 -0.9239
vn -0.0000 1.0000 -0.0000
vn -0.1951 -0.0000 -0.9808
vn -0.0000 -1.0000 -0.0000
vn 0.1951 0.9808 -0.0000
vn 0.3827 0.9239 -0.0000
vn 0.5556 0.8315 -0.0000
vn 0.7071 0.7071 -0.0000
vn 0.8315 0.5556 -0.0000
vn 0.9239 0.3827 -0.0000
vn 0.9808 0.1951 -0.0000
vn 0.9808 -0.1951 -0.0000
vn 0.9239 -0.3827 -0.0000
vn 0.8315 -0.5556 -0.0000
vn 0.7071 -0.7071 -0.0000
vn 0.5556 -0.8315 -0.0000
vn 0.3827 -0.9239 -0.0000
vn 0.1951 -0.9808 -0.0000
vn -0.1951 -0.9808 -0.0000
vn -0.3827 -0.9239 -0.0000
vn -0.5556 -0.8315 -0.0000
vn -0.7071 -0.7071 -0.0000
vn -0.8315 -0.5556 -0.0000
vn -0.9239 -0.3827 -0.0000
vn -0.9808 -0.1951 -0.0000
vn -0.9808 0.1951 -0.0000
vn -0.9239 0.3827 -0.0000
vn -0.8315 0.5556 -0.0000
vn -0.7071 0.7071 -0.0000
vn -0.5556 0.8315 -0.0000
vn -0.3827 0.9239 -0.0000
vn -0.1951 0.9808 -0.0000
vn -0.0001 1.0000 -0.0000
vn 0.0001 1.0000 -0.0000
vt 0.590139 0.790254
vt 0.582505 0.011446
vt 0.590139 0.011446
vt 0.582505 0.790254
vt 0.574871 0.011446
vt 0.574871 0.790254
vt 0.567238 0.011446
vt 0.567238 0.790254
vt 0.559604 0.011446
vt 0.559604 0.790254
vt 0.551970 0.011446
vt 0.551970 0.790254
vt 0.544337 0.011446
vt 0.544337 0.790254
vt 0.536703 0.011446
vt 0.536703 0.790254
vt 0.529070 0.011446
vt 0.529070 0.790254
vt 0.521436 0.011446
vt 0.521436 0.790254
vt 0.513802 0.011446
vt 0.513802 0.790254
vt 0.506169 0.011446
vt 0.506169 0.790254
vt 0.498535 0.011446
vt 0.498535 0.790254
vt 0.490901 0.011446
vt 0.490901 0.790254
vt 0.483268 0.011446
vt 0.483268 0.790254
vt 0.475634 0.011446
vt 0.475634 0.790254
vt 0.468000 0.011446
vt 0.468000 0.790254
vt 0.460367 0.011446
vt 0.460367 0.790254
vt 0.452733 0.011446
vt 0.452733 0.790254
vt 0.445099 0.011446
vt 0.445099 0.790254
vt 0.437466 0.011446
vt 0.437466 0.790254
vt 0.429832 0.011446
vt 0.429832 0.790254
vt 0.422198 0.011446
vt 0.422198 0.790254
vt 0.414565 0.011446
vt 0.414565 0.790254
vt 0.406931 0.011446
vt 0.406931 0.790254
vt 0.399298 0.011446
vt 0.399298 0.790254
vt 0.391664 0.011446
vt 0.391664 0.790254
vt 0.384030 0.011446
vt 0.384030 0.790254
vt 0.376397 0.011446
vt 0.376397 0.790254
vt 0.368763 0.011446
vt 0.368763 0.790254
vt 0.361129 0.011446
vt 0.627081 0.685929
vt 0.681886 0.691327
vt 0.676488 0.746132
vt 0.361129 0.790254
vt 0.353496 0.011446
vt 0.353496 0.790254
vt 0.345862 0.011446
vt 0.681886 0.841132
vt 0.627081 0.846530
vt 0.621683 0.791725
vt 0.322969 0.011446
vt 0.011446 0.041981
vt 0.011446 0.011446
vt 0.322969 0.041981
vt 0.011446 0.072516
vt 0.322969 0.072515
vt 0.011446 0.103050
vt 0.322969 0.103050
vt 0.011446 0.133585
vt 0.322969 0.133585
vt 0.011446 0.164119
vt 0.322969 0.164119
vt 0.011446 0.194654
vt 0.322969 0.194654
vt 0.011446 0.225189
vt 0.322969 0.225189
vt 0.011446 0.255723
vt 0.322969 0.255723
vt 0.011446 0.286258
vt 0.322969 0.286258
vt 0.011446 0.316792
vt 0.322969 0.316792
vt 0.011446 0.347327
vt 0.322969 0.347327
vt 0.011446 0.377862
vt 0.322969 0.377862
vt 0.011446 0.408396
vt 0.322969 0.408396
vt 0.011446 0.438931
vt 0.322969 0.438931
vt 0.011446 0.469465
vt 0.322969 0.469465
vt 0.011446 0.500000
vt 0.322969 0.500000
vt 0.011446 0.530535
vt 0.322969 0.530535
vt 0.011446 0.561069
vt 0.322969 0.561069
vt 0.011446 0.591604
vt 0.322969 0.591604
vt 0.011446 0.622138
vt 0.322969 0.622138
vt 0.011446 0.652673
vt 0.322969 0.652673
vt 0.011446 0.683208
vt 0.322969 0.683208
vt 0.011446 0.713742
vt 0.322969 0.713742
vt 0.011446 0.744277
vt 0.322969 0.744277
vt 0.011446 0.774812
vt 0.322969 0.774812
vt 0.011446 0.805346
vt 0.322969 0.805346
vt 0.011446 0.835881
vt 0.322969 0.835881
vt 0.011446 0.866415
vt 0.322969 0.866415
vt 0.011446 0.896950
vt 0.322969 0.896950
vt 0.011446 0.927485
vt 0.669229 0.046052
vt 0.888448 0.067644
vt 0.866857 0.286863
vt 0.322969 0.927485
vt 0.011446 0.958019
vt 0.322969 0.958019
vt 0.011446 0.988554
vt 0.923054 0.514641
vt 0.752775 0.654385
vt 0.613031 0.484106
vt 0.670141 0.750373
vt 0.663088 0.753294
vt 0.655601 0.754783
vt 0.647967 0.754783
vt 0.640480 0.753294
vt 0.633428 0.750373
vt 0.627081 0.746132
vt 0.621683 0.740734
vt 0.617442 0.734387
vt 0.614521 0.727334
vt 0.613031 0.719847
vt 0.613031 0.712214
vt 0.614521 0.704727
vt 0.617442 0.697674
vt 0.621683 0.691327
vt 0.633428 0.681688
vt 0.640480 0.678767
vt 0.647967 0.677278
vt 0.655601 0.677278
vt 0.663088 0.678767
vt 0.670141 0.681688
vt 0.676488 0.685929
vt 0.686127 0.697674
vt 0.689048 0.704727
vt 0.690537 0.712214
vt 0.690537 0.719847
vt 0.689048 0.727334
vt 0.686127 0.734387
vt 0.681886 0.740734
vt 0.345862 0.790254
vt 0.627081 0.786327
vt 0.633428 0.782086
vt 0.640480 0.779165
vt 0.647967 0.777676
vt 0.655601 0.777676
vt 0.663088 0.779165
vt 0.670141 0.782086
vt 0.676488 0.786327
vt 0.681886 0.791725
vt 0.686127 0.798072
vt 0.689048 0.805125
vt 0.690537 0.812612
vt 0.690537 0.820246
vt 0.689048 0.827733
vt 0.686127 0.834785
vt 0.676488 0.846530
vt 0.670141 0.850771
vt 0.663088 0.853692
vt 0.655601 0.855182
vt 0.647967 0.855182
vt 0.640480 0.853692
vt 0.633428 0.850771
vt 0.621683 0.841132
vt 0.617442 0.834785
vt 0.614521 0.827733
vt 0.613031 0.820246
vt 0.613031 0.812612
vt 0.614521 0.805125
vt 0.617442 0.798072
vt 0.841468 0.303827
vt 0.813258 0.315512
vt 0.783310 0.321469
vt 0.752775 0.321469
vt 0.722828 0.315512
vt 0.694617 0.303827
vt 0.669229 0.286863
vt 0.647637 0.265272
vt 0.630673 0.239883
vt 0.618988 0.211673
vt 0.613031 0.181725
vt 0.613031 0.151190
vt 0.618988 0.121243
vt 0.630673 0.093032
vt 0.647637 0.067644
vt 0.694617 0.029088
vt 0.722827 0.017403
vt 0.752775 0.011446
vt 0.783310 0.011446
vt 0.813258 0.017403
vt 0.841468 0.029088
vt 0.866857 0.046052
vt 0.905412 0.093032
vt 0.917097 0.121243
vt 0.923054 0.151191
vt 0.923054 0.181725
vt 0.917097 0.211673
vt 0.905412 0.239883
vt 0.888448 0.265272
vt 0.322969 0.988554
vt 0.618988 0.454158
vt 0.630673 0.425948
vt 0.647637 0.400559
vt 0.669229 0.378968
vt 0.694617 0.362004
vt 0.722828 0.350319
vt 0.752775 0.344362
vt 0.783310 0.344362
vt 0.813258 0.350319
vt 0.841468 0.362004
vt 0.866857 0.378968
vt 0.888448 0.400559
vt 0.905412 0.425948
vt 0.917097 0.454158
vt 0.923054 0.484106
vt 0.917097 0.544589
vt 0.905412 0.572799
vt 0.888448 0.598187
vt 0.866857 0.619779
vt 0.841468 0.636743
vt 0.813258 0.648428
vt 0.783310 0.654385
vt 0.722828 0.648428
vt 0.694617 0.636743
vt 0.669229 0.619779
vt 0.647638 0.598187
vt 0.630673 0.572799
vt 0.618988 0.544589
vt 0.613031 0.514641
s 1
usemtl マテリアル
f 2/1/1 3/2/2 1/3/1
f 4/4/2 5/5/3 3/2/2
f 6/6/3 7/7/4 5/5/3
f 8/8/4 9/9/5 7/7/4
f 10/10/5 11/11/6 9/9/5
f 12/12/6 13/13/7 11/11/6
f 14/14/7 15/15/8 13/13/7
f 16/16/8 17/17/9 15/15/8
f 18/18/9 19/19/10 17/17/9
f 20/20/10 21/21/11 19/19/10
f 22/22/11 23/23/12 21/21/11
f 24/24/12 25/25/13 23/23/12
f 26/26/13 27/27/14 25/25/13
f 28/28/14 29/29/15 27/27/14
f 30/30/15 31/31/16 29/29/15
f 32/32/16 33/33/17 31/31/16
f 34/34/17 35/35/18 33/33/17
f 36/36/18 37/37/19 35/35/18
f 38/38/19 39/39/20 37/37/19
f 40/40/20 41/41/21 39/39/20
f 42/42/21 43/43/22 41/41/21
f 44/44/22 45/45/23 43/43/22
f 46/46/23 47/47/24 45/45/23
f 48/48/24 49/49/25 47/47/24
f 50/50/25 51/51/26 49/49/25
f 52/52/26 53/53/27 51/51/26
f 54/54/27 55/55/28 53/53/27
f 56/56/28 57/57/29 55/55/28
f 58/58/29 59/59/30 57/57/29
f 60/60/30 61/61/31 59/59/30
f 38/62/32 22/63/32 6/64/32
f 62/65/31 63/66/33 61/61/31
f 64/67/33 1/68/1 63/66/33
f 31/69/34 47/70/34 63/71/34
f 66/72/32 67/73/35 65/74/32
f 68/75/35 69/76/36 67/73/35
f 70/77/36 71/78/37 69/76/36
f 72/79/37 73/80/38 71/78/37
f 74/81/38 75/82/39 73/80/38
f 76/83/39 77/84/40 75/82/39
f 78/85/40 79/86/41 77/84/40
f 80/87/41 81/88/9 79/86/41
f 82/89/9 83/90/42 81/88/9
f 84/91/42 85/92/43 83/90/42
f 86/93/43 87/94/44 85/92/43
f 88/95/44 89/96/45 87/94/44
f 90/97/45 91/98/46 89/96/45
f 92/99/46 93/100/47 91/98/46
f 94/101/47 95/102/48 93/100/47
f 96/103/48 97/104/34 95/102/48
f 98/105/34 99/106/49 97/104/34
f 100/107/49 101/108/50 99/106/49
f 102/109/50 103/110/51 101/108/50
f 104/111/51 105/112/52 103/110/51
f 106/113/52 107/114/53 105/112/52
f 108/115/53 109/116/54 107/114/53
f 110/117/54 111/118/55 109/116/54
f 112/119/55 113/120/25 111/118/55
f 114/121/25 115/122/56 113/120/25
f 116/123/56 117/124/57 115/122/56
f 118/125/57 119/126/58 117/124/57
f 120/127/58 121/128/59 119/126/58
f 122/129/59 123/130/60 121/128/59
f 124/131/60 125/132/61 123/130/60
f 102/133/17 86/134/17 70/135/17
f 126/136/61 127/137/62 125/132/61
f 128/138/62 65/139/32 127/137/62
f 95/140/1 111/141/1 127/142/1
f 2/1/1 4/4/2 3/2/2
f 4/4/2 6/6/3 5/5/3
f 6/6/3 8/8/4 7/7/4
f 8/8/4 10/10/5 9/9/5
f 10/10/5 12/12/6 11/11/6
f 12/12/6 14/14/7 13/13/7
f 14/14/7 16/16/8 15/15/8
f 16/16/8 18/18/9 17/17/9
f 18/18/9 20/20/10 19/19/10
f 20/20/10 22/22/11 21/21/11
f 22/22/11 24/24/12 23/23/12
f 24/24/12 26/26/13 25/25/13
f 26/26/13 28/28/14 27/27/14
f 28/28/14 30/30/15 29/29/15
f 30/30/15 32/32/16 31/31/16
f 32/32/16 34/34/17 33/33/17
f 34/34/17 36/36/18 35/35/18
f 36/36/18 38/38/19 37/37/19
f 38/38/19 40/40/20 39/39/20
f 40/40/20 42/42/21 41/41/21
f 42/42/21 44/44/22 43/43/22
f 44/44/22 46/46/23 45/45/23
f 46/46/23 48/48/24 47/47/24
f 48/48/24 50/50/25 49/49/25
f 50/50/25 52/52/26 51/51/26
f 52/52/26 54/54/27 53/53/27
f 54/54/27 56/56/28 55/55/28
f 56/56/28 58/58/29 57/57/29
f 58/58/29 60/60/30 59/59/30
f 60/60/30 62/65/31 61/61/31
f 6/64/32 4/143/32 2/144/32
f 2/144/32 64/145/32 62/146/32
f 62/146/32 60/147/63 58/148/32
f 58/148/32 56/149/32 54/150/32
f 54/150/32 52/151/63 50/152/32
f 50/152/32 48/153/63 46/154/32
f 46/154/32 44/155/32 42/156/32
f 42/156/32 40/157/63 38/62/32
f 38/62/32 36/158/32 34/159/32
f 34/159/32 32/160/32 30/161/32
f 30/161/32 28/162/64 26/163/32
f 26/163/32 24/164/32 22/63/32
f 22/63/32 20/165/64 18/166/32
f 18/166/32 16/167/64 14/168/32
f 14/168/32 12/169/32 10/170/32
f 10/170/32 8/171/64 6/64/32
f 6/64/32 2/144/32 62/146/32
f 62/146/32 58/148/32 54/150/32
f 54/150/32 50/152/32 46/154/32
f 46/154/32 42/156/32 38/62/32
f 38/62/32 34/159/32 30/161/32
f 30/161/32 26/163/32 22/63/32
f 22/63/32 18/166/32 14/168/32
f 14/168/32 10/170/32 6/64/32
f 6/64/32 62/146/32 54/150/32
f 54/150/32 46/154/32 38/62/32
f 38/62/32 30/161/32 22/63/32
f 22/63/32 14/168/32 6/64/32
f 6/64/32 54/150/32 38/62/32
f 62/65/31 64/67/33 63/66/33
f 64/67/33 2/172/1 1/68/1
f 63/71/34 1/173/34 3/174/34
f 3/174/34 5/175/34 7/176/34
f 7/176/34 9/177/34 11/178/34
f 11/178/34 13/179/34 15/180/34
f 15/180/34 17/181/34 19/182/34
f 19/182/34 21/183/34 23/184/34
f 23/184/34 25/185/34 27/186/34
f 27/186/34 29/187/34 31/69/34
f 31/69/34 33/188/34 35/189/34
f 35/189/34 37/190/34 39/191/34
f 39/191/34 41/192/34 43/193/34
f 43/193/34 45/194/34 47/70/34
f 47/70/34 49/195/34 51/196/34
f 51/196/34 53/197/34 55/198/34
f 55/198/34 57/199/34 59/200/34
f 59/200/34 61/201/34 63/71/34
f 63/71/34 3/174/34 7/176/34
f 7/176/34 11/178/34 15/180/34
f 15/180/34 19/182/34 23/184/34
f 23/184/34 27/186/34 31/69/34
f 31/69/34 35/189/34 39/191/34
f 39/191/34 43/193/34 47/70/34
f 47/70/34 51/196/34 55/198/34
f 55/198/34 59/200/34 63/71/34
f 63/71/34 7/176/34 15/180/34
f 15/180/34 23/184/34 31/69/34
f 31/69/34 39/191/34 47/70/34
f 47/70/34 55/198/34 63/71/34
f 63/71/34 15/180/34 31/69/34
f 66/72/32 68/75/35 67/73/35
f 68/75/35 70/77/36 69/76/36
f 70/77/36 72/79/37 71/78/37
f 72/79/37 74/81/38 73/80/38
f 74/81/38 76/83/39 75/82/39
f 76/83/39 78/85/40 77/84/40
f 78/85/40 80/87/41 79/86/41
f 80/87/41 82/89/9 81/88/9
f 82/89/9 84/91/42 83/90/42
f 84/91/42 86/93/43 85/92/43
f 86/93/43 88/95/44 87/94/44
f 88/95/44 90/97/45 89/96/45
f 90/97/45 92/99/46 91/98/46
f 92/99/46 94/101/47 93/100/47
f 94/101/47 96/103/48 95/102/48
f 96/103/48 98/105/34 97/104/34
f 98/105/34 100/107/49 99/106/49
f 100/107/49 102/109/50 101/108/50
f 102/109/50 104/111/51 103/110/51
f 104/111/51 106/113/52 105/112/52
f 106/113/52 108/115/53 107/114/53
f 108/115/53 110/117/54 109/116/54
f 110/117/54 112/119/55 111/118/55
f 112/119/55 114/121/25 113/120/25
f 114/121/25 116/123/56 115/122/56
f 116/123/56 118/125/57 117/124/57
f 118/125/57 120/127/58 119/126/58
f 120/127/58 122/129/59 121/128/59
f 122/129/59 124/131/60 123/130/60
f 124/131/60 126/136/61 125/132/61
f 70/135/17 68/202/17 66/203/17
f 66/203/17 128/204/17 126/205/17
f 126/205/17 124/206/17 122/207/17
f 122/207/17 120/208/17 118/209/17
f 118/209/17 116/210/17 114/211/17
f 114/211/17 112/212/17 110/213/17
f 110/213/17 108/214/17 106/215/17
f 106/215/17 104/216/17 102/133/17
f 102/133/17 100/217/17 98/218/17
f 98/218/17 96/219/17 94/220/17
f 94/220/17 92/221/17 90/222/17
f 90/222/17 88/223/17 86/134/17
f 86/134/17 84/224/17 82/225/17
f 82/225/17 80/226/17 78/227/17
f 78/227/17 76/228/17 74/229/17
f 74/229/17 72/230/17 70/135/17
f 70/135/17 66/203/17 126/205/17
f 126/205/17 122/207/17 118/209/17
f 118/209/17 114/211/17 110/213/17
f 110/213/17 106/215/17 102/133/17
f 102/133/17 98/218/17 94/220/17
f 94/220/17 90/222/17 86/134/17
f 86/134/17 82/225/17 78/227/17
f 78/227/17 74/229/17 70/135/17
f 70/135/17 126/205/17 118/209/17
f 118/209/17 110/213/17 102/133/17
f 102/133/17 94/220/17 86/134/17
f 86/134/17 78/227/17 70/135/17
f 70/135/17 118/209/17 102/133/17
f 126/136/61 128/138/62 127/137/62
f 128/138/62 66/231/32 65/139/32
f 127/142/1 65/232/1 67/233/1
f 67/233/1 69/234/1 71/235/1
f 71/235/1 73/236/1 75/237/1
f 75/237/1 77/238/1 79/239/1
f 79/239/1 81/240/1 83/241/1
f 83/241/1 85/242/1 87/243/1
f 87/243/1 89/244/1 91/245/1
f 91/245/1 93/246/1 95/140/1
f 95/140/1 97/247/1 99/248/1
f 99/248/1 101/249/1 103/250/1
f 103/250/1 105/251/1 107/252/1
f 107/252/1 109/253/1 111/141/1
f 111/141/1 113/254/1 115/255/1
f 115/255/1 117/256/1 119/257/1
f 119/257/1 121/258/1 123/259/1
f 123/259/1 125/260/1 127/142/1
f 127/142/1 67/233/1 71/235/1
f 71/235/1 75/237/1 79/239/1
f 79/239/1 83/241/1 87/243/1
f 87/243/1 91/245/1 95/140/1
f 95/140/1 99/248/1 103/250/1
f 103/250/1 107/252/1 111/141/1
f 111/141/1 115/255/1 119/257/1
f 119/257/1 123/259/1 127/142/1
f 127/142/1 71/235/1 79/239/1
f 79/239/1 87/243/1 95/140/1
f 95/140/1 103/250/1 111/141/1
f 111/141/1 119/257/1 127/142/1
f 127/142/1 79/239/1 95/140/1
