# Blender 4.1.1
# www.blender.org
mtllib Weapon.mtl
o 円柱
v 0.000000 1.400000 -2.000000
v 0.000000 1.400000 2.000000
v 0.136563 1.386550 -2.000000
v 0.136563 1.386550 2.000000
v 0.267878 1.346716 -2.000000
v 0.267878 1.346716 2.000000
v 0.388899 1.282029 -2.000000
v 0.388899 1.282029 2.000000
v 0.494975 1.194975 -2.000000
v 0.494975 1.194975 2.000000
v 0.582029 1.088899 -2.000000
v 0.582029 1.088899 2.000000
v 0.646716 0.967878 -2.000000
v 0.646716 0.967878 2.000000
v 0.686550 0.836563 -2.000000
v 0.686550 0.836563 2.000000
v 0.700000 0.700000 -2.000000
v 0.700000 0.700000 2.000000
v 0.686550 0.563437 -2.000000
v 0.686550 0.563437 2.000000
v 0.646716 0.432122 -2.000000
v 0.646716 0.432121 2.000000
v 0.582029 0.311101 -2.000000
v 0.582029 0.311101 2.000000
v 0.494975 0.205025 -2.000000
v 0.494975 0.205025 2.000000
v 0.388899 0.117971 -2.000000
v 0.388899 0.117971 2.000000
v 0.267878 0.053284 -2.000000
v 0.267878 0.053284 2.000000
v 0.136563 0.013450 -2.000000
v 0.136563 0.013450 2.000000
v 0.000000 0.000000 -2.000000
v 0.000000 -0.000000 2.000000
v -0.136563 0.013450 -2.000000
v -0.136563 0.013450 2.000000
v -0.267878 0.053284 -2.000000
v -0.267878 0.053284 2.000000
v -0.388899 0.117971 -2.000000
v -0.388899 0.117971 2.000000
v -0.494975 0.205025 -2.000000
v -0.494975 0.205025 2.000000
v -0.582029 0.311101 -2.000000
v -0.582029 0.311101 2.000000
v -0.646716 0.432122 -2.000000
v -0.646716 0.432121 2.000000
v -0.686550 0.563437 -2.000000
v -0.686550 0.563437 2.000000
v -0.700000 0.700000 -2.000000
v -0.700000 0.700000 2.000000
v -0.686550 0.836563 -2.000000
v -0.686550 0.836563 2.000000
v -0.646716 0.967878 -2.000000
v -0.646716 0.967878 2.000000
v -0.582029 1.088899 -2.000000
v -0.582029 1.088899 2.000000
v -0.494975 1.194975 -2.000000
v -0.494975 1.194975 2.000000
v -0.388899 1.282029 -2.000000
v -0.388899 1.282029 2.000000
v -0.267878 1.346716 -2.000000
v -0.267878 1.346716 2.000000
v -0.136563 1.386550 -2.000000
v -0.136563 1.386550 2.000000
v 0.000000 1.400000 1.969006
v 0.136563 1.386550 1.969006
v 0.267878 1.346716 1.969006
v 0.388899 1.282029 1.969006
v 0.494975 1.194975 1.969006
v 0.582029 1.088899 1.969006
v 0.646716 0.967878 1.969006
v 0.686550 0.836563 1.969006
v 0.700000 0.700000 1.969006
v 0.686550 0.563437 1.969006
v 0.646716 0.432122 1.969006
v 0.582029 0.311101 1.969006
v 0.494975 0.205025 1.969006
v 0.388899 0.117971 1.969006
v 0.267878 0.053284 1.969006
v 0.136563 0.013450 1.969006
v 0.000000 0.000000 1.969006
v -0.136563 0.013450 1.969006
v -0.267878 0.053284 1.969006
v -0.388899 0.117971 1.969006
v -0.494975 0.205025 1.969006
v -0.582029 0.311101 1.969006
v -0.646716 0.432122 1.969006
v -0.686550 0.563437 1.969006
v -0.700000 0.700000 1.969006
v -0.686550 0.836563 1.969006
v -0.646716 0.967878 1.969006
v -0.582029 1.088899 1.969006
v -0.494975 1.194975 1.969006
v -0.388899 1.282029 1.969006
v -0.267878 1.346716 1.969006
v -0.136563 1.386550 1.969006
v 0.000000 0.700000 3.969006
v 0.000000 0.000000 -1.926754
v 0.136563 0.013450 -1.926754
v 0.267878 0.053284 -1.926754
v 0.388899 0.117971 -1.926754
v 0.494975 0.205025 -1.926754
v 0.582029 0.311101 -1.926754
v 0.646716 0.432122 -1.926754
v 0.686550 0.563437 -1.926754
v 0.700000 0.700000 -1.926754
v 0.686550 0.836563 -1.926754
v 0.646716 0.967878 -1.926754
v 0.582029 1.088899 -1.926754
v 0.494975 1.194975 -1.926754
v 0.388899 1.282029 -1.926754
v 0.267878 1.346716 -1.926754
v 0.136563 1.386550 -1.926754
v 0.000000 1.400000 -1.926754
v -0.136563 1.386550 -1.926754
v -0.267878 1.346716 -1.926754
v -0.388899 1.282029 -1.926754
v -0.494975 1.194975 -1.926754
v -0.582029 1.088899 -1.926754
v -0.646716 0.967878 -1.926754
v -0.686550 0.836563 -1.926754
v -0.700000 0.700000 -1.926754
v -0.686550 0.563437 -1.926754
v -0.646716 0.432122 -1.926754
v -0.582029 0.311101 -1.926754
v -0.494975 0.205025 -1.926754
v -0.388899 0.117971 -1.926754
v -0.267878 0.053284 -1.926754
v -0.136563 0.013450 -1.926754
v 0.000000 0.700000 -3.926754
vn 0.0980 0.9952 -0.0000
vn 0.2903 0.9569 -0.0000
vn 0.4714 0.8819 -0.0000
vn 0.6344 0.7730 -0.0000
vn 0.7730 0.6344 -0.0000
vn 0.8819 0.4714 -0.0000
vn 0.9569 0.2903 -0.0000
vn 0.9952 0.0980 -0.0000
vn 0.9952 -0.0980 -0.0000
vn 0.9569 -0.2903 -0.0000
vn 0.8819 -0.4714 -0.0000
vn 0.7730 -0.6344 -0.0000
vn 0.6344 -0.7730 -0.0000
vn 0.4714 -0.8819 -0.0000
vn 0.2903 -0.9569 -0.0000
vn 0.0980 -0.9952 -0.0000
vn -0.0980 -0.9952 -0.0000
vn -0.2903 -0.9569 -0.0000
vn -0.4714 -0.8819 -0.0000
vn -0.6344 -0.7730 -0.0000
vn -0.7730 -0.6344 -0.0000
vn -0.8819 -0.4714 -0.0000
vn -0.9569 -0.2903 -0.0000
vn -0.9952 -0.0980 -0.0000
vn -0.9952 0.0980 -0.0000
vn -0.9569 0.2903 -0.0000
vn -0.8819 0.4714 -0.0000
vn -0.7730 0.6344 -0.0000
vn -0.6344 0.7730 -0.0000
vn -0.4714 0.8819 -0.0000
vn -0.0000 -0.0000 1.0000
vn -0.2903 0.9569 -0.0000
vn -0.0980 0.9952 -0.0000
vn -0.0000 -0.0000 -1.0000
vn 0.0926 0.9398 0.3289
vn 0.2741 0.9037 0.3289
vn 0.4452 0.8328 0.3289
vn 0.5991 0.7300 0.3289
vn 0.7300 0.5991 0.3289
vn 0.8328 0.4452 0.3289
vn 0.9037 0.2741 0.3289
vn 0.9398 0.0926 0.3289
vn 0.9398 -0.0926 0.3289
vn 0.9037 -0.2741 0.3289
vn 0.8328 -0.4452 0.3289
vn 0.7300 -0.5991 0.3289
vn 0.5991 -0.7300 0.3289
vn 0.4452 -0.8328 0.3289
vn 0.2741 -0.9037 0.3289
vn 0.0926 -0.9398 0.3289
vn -0.0926 -0.9398 0.3289
vn -0.2741 -0.9037 0.3289
vn -0.4452 -0.8328 0.3289
vn -0.5991 -0.7300 0.3289
vn -0.7300 -0.5991 0.3289
vn -0.8328 -0.4452 0.3289
vn -0.9037 -0.2741 0.3289
vn -0.9398 -0.0926 0.3289
vn -0.9398 0.0926 0.3289
vn -0.9037 0.2741 0.3289
vn -0.8328 0.4452 0.3289
vn -0.7300 0.5991 0.3289
vn -0.5991 0.7300 0.3289
vn -0.4452 0.8328 0.3289
vn -0.2741 0.9037 0.3289
vn -0.0926 0.9398 0.3289
vn 0.0926 -0.9398 -0.3289
vn 0.2741 -0.9037 -0.3289
vn 0.4452 -0.8328 -0.3289
vn 0.5991 -0.7300 -0.3289
vn 0.7300 -0.5991 -0.3289
vn 0.8328 -0.4452 -0.3289
vn 0.9037 -0.2741 -0.3289
vn 0.9398 -0.0926 -0.3289
vn 0.9398 0.0926 -0.3289
vn 0.9037 0.2741 -0.3289
vn 0.8328 0.4452 -0.3289
vn 0.7300 0.5991 -0.3289
vn 0.5991 0.7300 -0.3289
vn 0.4452 0.8328 -0.3289
vn 0.2741 0.9037 -0.3289
vn 0.0926 0.9398 -0.3289
vn -0.0926 0.9398 -0.3289
vn -0.2741 0.9037 -0.3289
vn -0.4452 0.8328 -0.3289
vn -0.5991 0.7300 -0.3289
vn -0.7300 0.5991 -0.3289
vn -0.8328 0.4452 -0.3289
vn -0.9037 0.2741 -0.3289
vn -0.9398 0.0926 -0.3289
vn -0.9398 -0.0926 -0.3289
vn -0.9037 -0.2741 -0.3289
vn -0.8328 -0.4452 -0.3289
vn -0.7300 -0.5991 -0.3289
vn -0.5991 -0.7300 -0.3289
vn -0.4452 -0.8328 -0.3289
vn -0.2741 -0.9037 -0.3289
vn -0.0926 -0.9398 -0.3289
vt 1.000000 1.000000
vt 0.968750 0.500000
vt 1.000000 0.500000
vt 0.968750 1.000000
vt 0.937500 0.500000
vt 0.937500 1.000000
vt 0.906250 0.500000
vt 0.906250 1.000000
vt 0.875000 0.500000
vt 0.875000 1.000000
vt 0.843750 0.500000
vt 0.843750 1.000000
vt 0.812500 0.500000
vt 0.812500 1.000000
vt 0.781250 0.500000
vt 0.781250 1.000000
vt 0.750000 0.500000
vt 0.750000 1.000000
vt 0.718750 0.500000
vt 0.718750 1.000000
vt 0.687500 0.500000
vt 0.687500 1.000000
vt 0.656250 0.500000
vt 0.656250 1.000000
vt 0.625000 0.500000
vt 0.625000 1.000000
vt 0.593750 0.500000
vt 0.593750 1.000000
vt 0.562500 0.500000
vt 0.562500 1.000000
vt 0.531250 0.500000
vt 0.531250 1.000000
vt 0.500000 0.500000
vt 0.500000 1.000000
vt 0.468750 0.500000
vt 0.468750 1.000000
vt 0.437500 0.500000
vt 0.437500 1.000000
vt 0.406250 0.500000
vt 0.406250 1.000000
vt 0.375000 0.500000
vt 0.375000 1.000000
vt 0.343750 0.500000
vt 0.343750 1.000000
vt 0.312500 0.500000
vt 0.312500 1.000000
vt 0.281250 0.500000
vt 0.281250 1.000000
vt 0.250000 0.500000
vt 0.250000 1.000000
vt 0.218750 0.500000
vt 0.218750 1.000000
vt 0.187500 0.500000
vt 0.187500 1.000000
vt 0.156250 0.500000
vt 0.156250 1.000000
vt 0.125000 0.500000
vt 0.125000 1.000000
vt 0.093750 0.500000
vt 0.093750 1.000000
vt 0.062500 0.500000
vt 0.158156 0.028269
vt 0.471731 0.158156
vt 0.341844 0.471731
vt 0.062500 1.000000
vt 0.031250 0.500000
vt 0.031250 1.000000
vt 0.000000 0.500000
vt 0.796822 0.014612
vt 0.514612 0.203178
vt 0.703178 0.485388
vt 0.250000 0.490000
vt 0.250000 0.250000
vt 0.296822 0.485388
vt 0.383337 0.449553
vt 0.419706 0.419706
vt 0.449553 0.383337
vt 0.471731 0.341844
vt 0.485388 0.296822
vt 0.490000 0.250000
vt 0.485388 0.203178
vt 0.449553 0.116663
vt 0.419706 0.080294
vt 0.383337 0.050447
vt 0.341844 0.028269
vt 0.296822 0.014612
vt 0.250000 0.010000
vt 0.203178 0.014612
vt 0.116663 0.050447
vt 0.080294 0.080294
vt 0.050447 0.116663
vt 0.028269 0.158156
vt 0.014612 0.203178
vt 0.010000 0.250000
vt 0.014612 0.296822
vt 0.028269 0.341844
vt 0.050447 0.383337
vt 0.080294 0.419706
vt 0.116663 0.449553
vt 0.158156 0.471731
vt 0.203178 0.485388
vt 0.000000 1.000000
vt 0.750000 0.490000
vt 0.796822 0.485388
vt 0.841844 0.471731
vt 0.883337 0.449553
vt 0.919706 0.419706
vt 0.949553 0.383337
vt 0.971731 0.341844
vt 0.985388 0.296822
vt 0.990000 0.250000
vt 0.985388 0.203178
vt 0.971731 0.158156
vt 0.949553 0.116663
vt 0.919706 0.080294
vt 0.883337 0.050447
vt 0.841844 0.028269
vt 0.750000 0.010000
vt 0.703178 0.014612
vt 0.658156 0.028269
vt 0.616663 0.050447
vt 0.580294 0.080294
vt 0.550447 0.116663
vt 0.528269 0.158156
vt 0.510000 0.250000
vt 0.514612 0.296822
vt 0.528269 0.341844
vt 0.550447 0.383337
vt 0.580294 0.419706
vt 0.616663 0.449553
vt 0.658156 0.471731
s 0
f 2/1/1 3/2/1 1/3/1
f 4/4/2 5/5/2 3/2/2
f 6/6/3 7/7/3 5/5/3
f 8/8/4 9/9/4 7/7/4
f 10/10/5 11/11/5 9/9/5
f 12/12/6 13/13/6 11/11/6
f 14/14/7 15/15/7 13/13/7
f 16/16/8 17/17/8 15/15/8
f 18/18/9 19/19/9 17/17/9
f 20/20/10 21/21/10 19/19/10
f 22/22/11 23/23/11 21/21/11
f 24/24/12 25/25/12 23/23/12
f 26/26/13 27/27/13 25/25/13
f 28/28/14 29/29/14 27/27/14
f 30/30/15 31/31/15 29/29/15
f 32/32/16 33/33/16 31/31/16
f 34/34/17 35/35/17 33/33/17
f 36/36/18 37/37/18 35/35/18
f 38/38/19 39/39/19 37/37/19
f 40/40/20 41/41/20 39/39/20
f 42/42/21 43/43/21 41/41/21
f 44/44/22 45/45/22 43/43/22
f 46/46/23 47/47/23 45/45/23
f 48/48/24 49/49/24 47/47/24
f 50/50/25 51/51/25 49/49/25
f 52/52/26 53/53/26 51/51/26
f 54/54/27 55/55/27 53/53/27
f 56/56/28 57/57/28 55/55/28
f 58/58/29 59/59/29 57/57/29
f 60/60/30 61/61/30 59/59/30
f 38/62/31 22/63/31 6/64/31
f 62/65/32 63/66/32 61/61/32
f 64/67/33 1/68/33 63/66/33
f 31/69/34 47/70/34 63/71/34
f 65/72/35 97/73/35 66/74/35
f 66/74/36 97/73/36 67/64/36
f 67/64/37 97/73/37 68/75/37
f 68/75/38 97/73/38 69/76/38
f 69/76/39 97/73/39 70/77/39
f 70/77/40 97/73/40 71/78/40
f 71/78/41 97/73/41 72/79/41
f 72/79/42 97/73/42 73/80/42
f 73/80/43 97/73/43 74/81/43
f 74/81/44 97/73/44 75/63/44
f 75/63/45 97/73/45 76/82/45
f 76/82/46 97/73/46 77/83/46
f 77/83/47 97/73/47 78/84/47
f 78/84/48 97/73/48 79/85/48
f 79/85/49 97/73/49 80/86/49
f 80/86/50 97/73/50 81/87/50
f 81/87/51 97/73/51 82/88/51
f 82/88/52 97/73/52 83/62/52
f 83/62/53 97/73/53 84/89/53
f 84/89/54 97/73/54 85/90/54
f 85/90/55 97/73/55 86/91/55
f 86/91/56 97/73/56 87/92/56
f 87/92/57 97/73/57 88/93/57
f 88/93/58 97/73/58 89/94/58
f 89/94/59 97/73/59 90/95/59
f 90/95/60 97/73/60 91/96/60
f 91/96/61 97/73/61 92/97/61
f 92/97/62 97/73/62 93/98/62
f 93/98/63 97/73/63 94/99/63
f 94/99/64 97/73/64 95/100/64
f 80/69/34 88/70/34 96/71/34
f 95/100/65 97/73/65 96/101/65
f 96/101/66 97/73/66 65/72/66
f 98/72/67 130/73/67 99/74/67
f 99/74/68 130/73/68 100/64/68
f 100/64/69 130/73/69 101/75/69
f 101/75/70 130/73/70 102/76/70
f 102/76/71 130/73/71 103/77/71
f 103/77/72 130/73/72 104/78/72
f 104/78/73 130/73/73 105/79/73
f 105/79/74 130/73/74 106/80/74
f 106/80/75 130/73/75 107/81/75
f 107/81/76 130/73/76 108/63/76
f 108/63/77 130/73/77 109/82/77
f 109/82/78 130/73/78 110/83/78
f 110/83/79 130/73/79 111/84/79
f 111/84/80 130/73/80 112/85/80
f 112/85/81 130/73/81 113/86/81
f 113/86/82 130/73/82 114/87/82
f 114/87/83 130/73/83 115/88/83
f 115/88/84 130/73/84 116/62/84
f 116/62/85 130/73/85 117/89/85
f 117/89/86 130/73/86 118/90/86
f 118/90/87 130/73/87 119/91/87
f 119/91/88 130/73/88 120/92/88
f 120/92/89 130/73/89 121/93/89
f 121/93/90 130/73/90 122/94/90
f 122/94/91 130/73/91 123/95/91
f 123/95/92 130/73/92 124/96/92
f 124/96/93 130/73/93 125/97/93
f 125/97/94 130/73/94 126/98/94
f 126/98/95 130/73/95 127/99/95
f 127/99/96 130/73/96 128/100/96
f 113/69/31 121/70/31 129/71/31
f 128/100/97 130/73/97 129/101/97
f 129/101/98 130/73/98 98/72/98
f 2/1/1 4/4/1 3/2/1
f 4/4/2 6/6/2 5/5/2
f 6/6/3 8/8/3 7/7/3
f 8/8/4 10/10/4 9/9/4
f 10/10/5 12/12/5 11/11/5
f 12/12/6 14/14/6 13/13/6
f 14/14/7 16/16/7 15/15/7
f 16/16/8 18/18/8 17/17/8
f 18/18/9 20/20/9 19/19/9
f 20/20/10 22/22/10 21/21/10
f 22/22/11 24/24/11 23/23/11
f 24/24/12 26/26/12 25/25/12
f 26/26/13 28/28/13 27/27/13
f 28/28/14 30/30/14 29/29/14
f 30/30/15 32/32/15 31/31/15
f 32/32/16 34/34/16 33/33/16
f 34/34/17 36/36/17 35/35/17
f 36/36/18 38/38/18 37/37/18
f 38/38/19 40/40/19 39/39/19
f 40/40/20 42/42/20 41/41/20
f 42/42/21 44/44/21 43/43/21
f 44/44/22 46/46/22 45/45/22
f 46/46/23 48/48/23 47/47/23
f 48/48/24 50/50/24 49/49/24
f 50/50/25 52/52/25 51/51/25
f 52/52/26 54/54/26 53/53/26
f 54/54/27 56/56/27 55/55/27
f 56/56/28 58/58/28 57/57/28
f 58/58/29 60/60/29 59/59/29
f 60/60/30 62/65/30 61/61/30
f 6/64/31 4/74/31 2/72/31
f 2/72/31 64/101/31 62/100/31
f 62/100/31 60/99/31 58/98/31
f 58/98/31 56/97/31 54/96/31
f 54/96/31 52/95/31 50/94/31
f 50/94/31 48/93/31 46/92/31
f 46/92/31 44/91/31 42/90/31
f 42/90/31 40/89/31 38/62/31
f 38/62/31 36/88/31 34/87/31
f 34/87/31 32/86/31 30/85/31
f 30/85/31 28/84/31 26/83/31
f 26/83/31 24/82/31 22/63/31
f 22/63/31 20/81/31 18/80/31
f 18/80/31 16/79/31 14/78/31
f 14/78/31 12/77/31 10/76/31
f 10/76/31 8/75/31 6/64/31
f 6/64/31 2/72/31 62/100/31
f 62/100/31 58/98/31 54/96/31
f 54/96/31 50/94/31 46/92/31
f 46/92/31 42/90/31 38/62/31
f 38/62/31 34/87/31 30/85/31
f 30/85/31 26/83/31 22/63/31
f 22/63/31 18/80/31 14/78/31
f 14/78/31 10/76/31 6/64/31
f 6/64/31 62/100/31 54/96/31
f 54/96/31 46/92/31 38/62/31
f 38/62/31 30/85/31 22/63/31
f 22/63/31 14/78/31 6/64/31
f 6/64/31 54/96/31 38/62/31
f 62/65/32 64/67/32 63/66/32
f 64/67/33 2/102/33 1/68/33
f 63/71/34 1/103/34 3/104/34
f 3/104/34 5/105/34 7/106/34
f 7/106/34 9/107/34 11/108/34
f 11/108/34 13/109/34 15/110/34
f 15/110/34 17/111/34 19/112/34
f 19/112/34 21/113/34 23/114/34
f 23/114/34 25/115/34 27/116/34
f 27/116/34 29/117/34 31/69/34
f 31/69/34 33/118/34 35/119/34
f 35/119/34 37/120/34 39/121/34
f 39/121/34 41/122/34 43/123/34
f 43/123/34 45/124/34 47/70/34
f 47/70/34 49/125/34 51/126/34
f 51/126/34 53/127/34 55/128/34
f 55/128/34 57/129/34 59/130/34
f 59/130/34 61/131/34 63/71/34
f 63/71/34 3/104/34 7/106/34
f 7/106/34 11/108/34 15/110/34
f 15/110/34 19/112/34 23/114/34
f 23/114/34 27/116/34 31/69/34
f 31/69/34 35/119/34 39/121/34
f 39/121/34 43/123/34 47/70/34
f 47/70/34 51/126/34 55/128/34
f 55/128/34 59/130/34 63/71/34
f 63/71/34 7/106/34 15/110/34
f 15/110/34 23/114/34 31/69/34
f 31/69/34 39/121/34 47/70/34
f 47/70/34 55/128/34 63/71/34
f 63/71/34 15/110/34 31/69/34
f 96/71/34 65/103/34 66/104/34
f 66/104/34 67/105/34 68/106/34
f 68/106/34 69/107/34 70/108/34
f 70/108/34 71/109/34 72/110/34
f 72/110/34 73/111/34 74/112/34
f 74/112/34 75/113/34 76/114/34
f 76/114/34 77/115/34 78/116/34
f 78/116/34 79/117/34 80/69/34
f 80/69/34 81/118/34 82/119/34
f 82/119/34 83/120/34 84/121/34
f 84/121/34 85/122/34 86/123/34
f 86/123/34 87/124/34 88/70/34
f 88/70/34 89/125/34 90/126/34
f 90/126/34 91/127/34 92/128/34
f 92/128/34 93/129/34 94/130/34
f 94/130/34 95/131/34 96/71/34
f 96/71/34 66/104/34 68/106/34
f 68/106/34 70/108/34 72/110/34
f 72/110/34 74/112/34 76/114/34
f 76/114/34 78/116/34 80/69/34
f 80/69/34 82/119/34 84/121/34
f 84/121/34 86/123/34 88/70/34
f 88/70/34 90/126/34 92/128/34
f 92/128/34 94/130/34 96/71/34
f 96/71/34 68/106/34 72/110/34
f 72/110/34 76/114/34 80/69/34
f 80/69/34 84/121/34 88/70/34
f 88/70/34 92/128/34 96/71/34
f 96/71/34 72/110/34 80/69/34
f 129/71/31 98/103/31 99/104/31
f 99/104/31 100/105/31 101/106/31
f 101/106/31 102/107/31 103/108/31
f 103/108/31 104/109/31 105/110/31
f 105/110/31 106/111/31 107/112/31
f 107/112/31 108/113/31 109/114/31
f 109/114/31 110/115/31 111/116/31
f 111/116/31 112/117/31 113/69/31
f 113/69/31 114/118/31 115/119/31
f 115/119/31 116/120/31 117/121/31
f 117/121/31 118/122/31 119/123/31
f 119/123/31 120/124/31 121/70/31
f 121/70/31 122/125/31 123/126/31
f 123/126/31 124/127/31 125/128/31
f 125/128/31 126/129/31 127/130/31
f 127/130/31 128/131/31 129/71/31
f 129/71/31 99/104/31 101/106/31
f 101/106/31 103/108/31 105/110/31
f 105/110/31 107/112/31 109/114/31
f 109/114/31 111/116/31 113/69/31
f 113/69/31 115/119/31 117/121/31
f 117/121/31 119/123/31 121/70/31
f 121/70/31 123/126/31 125/128/31
f 125/128/31 127/130/31 129/71/31
f 129/71/31 101/106/31 105/110/31
f 105/110/31 109/114/31 113/69/31
f 113/69/31 117/121/31 121/70/31
f 121/70/31 125/128/31 129/71/31
f 129/71/31 105/110/31 113/69/31
