# Blender 4.1.1
# www.blender.org
mtllib EnemyWeapon.mtl
o Cube
v 0.320000 2.120000 -0.800000
v 0.320000 1.480000 -0.800000
v 0.320000 2.120000 0.800000
v 0.320000 1.480000 0.800000
v -0.320000 2.120000 -0.800000
v -0.320000 1.480000 -0.800000
v -0.320000 2.120000 0.800000
v -0.320000 1.480000 0.800000
v -0.480000 1.320000 -0.640000
v -0.480000 2.280000 -0.640000
v -0.480000 1.320000 -1.120000
v -0.480000 2.280000 -1.120000
v 0.480000 1.320000 -0.640000
v 0.480000 2.280000 -0.640000
v 0.480000 1.320000 -1.120000
v 0.480000 2.280000 -1.120000
v 0.000000 1.320000 -1.120000
v 0.000000 2.280000 -1.120000
v 0.000000 1.320000 -0.640000
v 0.000000 2.280000 -0.640000
v -0.480000 1.800000 -0.640000
v -0.480000 1.800000 -1.120000
v 0.480000 1.800000 -1.120000
v 0.480000 1.800000 -0.640000
v 0.000000 1.800000 -0.640000
v 0.000000 1.800000 -2.563245
v 0.480000 1.320000 0.640000
v 0.480000 2.280000 0.640000
v 0.480000 1.320000 1.120000
v 0.480000 2.280000 1.120000
v -0.480000 1.320000 0.640000
v -0.480000 2.280000 0.640000
v -0.480000 1.320000 1.120000
v -0.480000 2.280000 1.120000
v 0.000000 1.320000 1.120000
v 0.000000 2.280000 1.120000
v -0.000000 1.320000 0.640000
v -0.000000 2.280000 0.640000
v 0.480000 1.800000 0.640000
v 0.480000 1.800000 1.120000
v -0.480000 1.800000 1.120000
v -0.480000 1.800000 0.640000
v -0.000000 1.800000 0.640000
v 0.000000 1.800000 2.563245
vn -0.0000 1.0000 -0.0000
vn -0.0000 -0.0000 1.0000
vn -1.0000 -0.0000 -0.0000
vn -0.0000 -1.0000 -0.0000
vn 1.0000 -0.0000 -0.0000
vn -0.0000 -0.0000 -1.0000
vn 0.6883 0.6883 -0.2289
vn -0.6883 0.6883 -0.2289
vn -0.6883 0.6883 0.2289
vn 0.6883 0.6883 0.2289
vn -0.6883 -0.6883 -0.2289
vn 0.6883 -0.6883 -0.2289
vn 0.6883 -0.6883 0.2289
vn -0.6883 -0.6883 0.2289
vt 0.007394 0.403460
vt 0.120556 0.120556
vt 0.120556 0.403460
vt 0.233718 0.007394
vt 0.233718 0.120556
vt 0.120556 0.799527
vt 0.233718 0.516622
vt 0.233718 0.799527
vt 0.233718 0.403460
vt 0.346880 0.120556
vt 0.346880 0.403460
vt 0.120556 0.516622
vt 0.000000 0.000000
vt 0.007394 0.120556
vt 0.120556 0.007394
s 0
usemtl Weapon
f 5/1/1 3/2/1 1/3/1
f 3/2/2 8/4/2 4/5/2
f 7/6/3 6/7/3 8/8/3
f 2/9/4 8/10/4 6/11/4
f 1/3/5 4/5/5 2/9/5
f 5/12/6 2/9/6 6/7/6
f 10/13/3 22/13/3 21/13/3
f 18/13/7 23/13/7 26/13/7
f 16/13/5 24/13/5 23/13/5
f 20/13/2 21/13/2 25/13/2
f 15/13/4 19/13/4 17/13/4
f 12/13/1 20/13/1 18/13/1
f 18/13/1 14/13/1 16/13/1
f 17/13/4 9/13/4 11/13/4
f 14/13/2 25/13/2 24/13/2
f 22/13/8 18/13/8 26/13/8
f 22/13/6 17/13/6 11/13/6
f 24/13/2 19/13/2 13/13/2
f 25/13/2 9/13/2 19/13/2
f 23/13/5 13/13/5 15/13/5
f 17/13/6 23/13/6 15/13/6
f 21/13/3 11/13/3 9/13/3
f 28/13/5 40/13/5 39/13/5
f 36/13/9 41/13/9 44/13/9
f 34/13/3 42/13/3 41/13/3
f 38/13/6 39/13/6 43/13/6
f 33/13/4 37/13/4 35/13/4
f 30/13/1 38/13/1 36/13/1
f 36/13/1 32/13/1 34/13/1
f 35/13/4 27/13/4 29/13/4
f 32/13/6 43/13/6 42/13/6
f 40/13/10 36/13/10 44/13/10
f 40/13/2 35/13/2 29/13/2
f 42/13/6 37/13/6 31/13/6
f 43/13/6 27/13/6 37/13/6
f 41/13/3 31/13/3 33/13/3
f 35/13/2 41/13/2 33/13/2
f 39/13/5 29/13/5 27/13/5
f 5/1/1 7/14/1 3/2/1
f 3/2/2 7/15/2 8/4/2
f 7/6/3 5/12/3 6/7/3
f 2/9/4 4/5/4 8/10/4
f 1/3/5 3/2/5 4/5/5
f 5/12/6 1/3/6 2/9/6
f 10/13/3 12/13/3 22/13/3
f 18/13/6 16/13/6 23/13/6
f 16/13/5 14/13/5 24/13/5
f 20/13/2 10/13/2 21/13/2
f 15/13/4 13/13/4 19/13/4
f 12/13/1 10/13/1 20/13/1
f 18/13/1 20/13/1 14/13/1
f 17/13/4 19/13/4 9/13/4
f 14/13/2 20/13/2 25/13/2
f 22/13/6 12/13/6 18/13/6
f 22/13/11 26/13/11 17/13/11
f 24/13/2 25/13/2 19/13/2
f 25/13/2 21/13/2 9/13/2
f 23/13/5 24/13/5 13/13/5
f 17/13/12 26/13/12 23/13/12
f 21/13/3 22/13/3 11/13/3
f 28/13/5 30/13/5 40/13/5
f 36/13/2 34/13/2 41/13/2
f 34/13/3 32/13/3 42/13/3
f 38/13/6 28/13/6 39/13/6
f 33/13/4 31/13/4 37/13/4
f 30/13/1 28/13/1 38/13/1
f 36/13/1 38/13/1 32/13/1
f 35/13/4 37/13/4 27/13/4
f 32/13/6 38/13/6 43/13/6
f 40/13/2 30/13/2 36/13/2
f 40/13/13 44/13/13 35/13/13
f 42/13/6 43/13/6 37/13/6
f 43/13/6 39/13/6 27/13/6
f 41/13/3 42/13/3 31/13/3
f 35/13/14 44/13/14 41/13/14
f 39/13/5 40/13/5 29/13/5
